<svg width="449" height="449" viewBox="0 0 449 449" fill="none" xmlns="http://www.w3.org/2000/svg">
<path d="M400.654 0.378418H48.6541C35.9237 0.378418 23.7147 5.43555 14.7129 14.4373C5.71118 23.439 0.654053 35.648 0.654053 48.3784L0.654053 400.378C0.654053 413.109 5.71118 425.318 14.7129 434.32C23.7147 443.321 35.9237 448.378 48.6541 448.378H185.904V296.068H122.904V224.378H185.904V169.738C185.904 107.588 222.904 73.2584 279.574 73.2584C306.714 73.2584 335.094 78.0984 335.094 78.0984V139.098H303.824C273.014 139.098 263.404 158.218 263.404 177.828V224.378H332.184L321.184 296.068H263.404V448.378H400.654C413.384 448.378 425.593 443.321 434.595 434.32C443.597 425.318 448.654 413.109 448.654 400.378V48.3784C448.654 35.648 443.597 23.439 434.595 14.4373C425.593 5.43555 413.384 0.378418 400.654 0.378418V0.378418Z" fill="black"/>
</svg>
