<svg width="110" height="58" viewBox="0 0 110 58" fill="none" xmlns="http://www.w3.org/2000/svg">
<path d="M29.8615 55.2368H27.648V57.4469H29.8615V55.2368ZM23.4412 53.9581C23.4507 54.1219 23.4268 54.2859 23.3708 54.4402C23.3148 54.5944 23.228 54.7356 23.1155 54.8552C23.0031 54.9749 22.8675 55.0704 22.7169 55.136C22.5663 55.2016 22.4039 55.2359 22.2396 55.2368H21.2441V52.7426H22.2396C22.5591 52.7487 22.8636 52.8792 23.0881 53.1063C23.3125 53.3334 23.4393 53.6391 23.4412 53.9581ZM23.1724 49.5538C23.1767 49.6808 23.1553 49.8074 23.1095 49.926C23.0637 50.0446 22.9945 50.1528 22.906 50.2441C22.8175 50.3354 22.7115 50.408 22.5943 50.4576C22.4771 50.5071 22.3511 50.5326 22.2238 50.5326H21.2435V48.6067H22.2249C22.4763 48.6074 22.7171 48.7075 22.8949 48.8849C23.0726 49.0624 23.1728 49.3029 23.1736 49.5538H23.1724ZM25.6559 53.9581C25.6583 53.5139 25.573 53.0735 25.4048 52.6621C25.2366 52.2508 24.9888 51.8766 24.6756 51.561C25.1457 50.9994 25.3982 50.288 25.3871 49.5562C25.3871 48.7188 25.0539 47.9158 24.4609 47.3237C23.8679 46.7316 23.0636 46.3989 22.2249 46.3989H19.0312V57.4492H22.2407C22.6954 57.4475 23.1452 57.3555 23.564 57.1786C23.9827 57.0017 24.3621 56.7434 24.6799 56.4187C24.9977 56.0941 25.2476 55.7095 25.4152 55.2875C25.5828 54.8655 25.6646 54.4144 25.6559 53.9605V53.9581ZM14.1931 53.5816H12.7701L13.4816 49.6509L14.1931 53.5816ZM17.1339 57.4492L15.1429 46.3989H11.8226L9.84628 57.4492H12.0756L12.3918 55.7917H14.5895L14.8741 57.4492H17.1339ZM7.94781 57.4492V55.2368H3.5366V46.3966H1.31958V57.4469L7.94781 57.4492Z" fill="black"/>
<path d="M98.7369 42.2454V31.1952H96.5228V36.4046L94.766 31.1952H92.1098V42.2454H94.3233V36.7676L96.1896 42.2454H98.7369ZM87.7923 39.1987C87.7957 39.3449 87.7697 39.4903 87.716 39.6264C87.6623 39.7625 87.5819 39.8864 87.4796 39.991C87.3772 40.0956 87.2549 40.1787 87.1199 40.2355C86.9849 40.2922 86.8399 40.3215 86.6934 40.3215C86.547 40.3215 86.402 40.2922 86.267 40.2355C86.132 40.1787 86.0097 40.0956 85.9073 39.991C85.8049 39.8864 85.7245 39.7625 85.6708 39.6264C85.6171 39.4903 85.5912 39.3449 85.5946 39.1987V34.2261C85.5912 34.0799 85.6171 33.9345 85.6708 33.7984C85.7245 33.6623 85.8049 33.5384 85.9073 33.4338C86.0097 33.3292 86.132 33.2461 86.267 33.1893C86.402 33.1326 86.547 33.1033 86.6934 33.1033C86.8399 33.1033 86.9849 33.1326 87.1199 33.1893C87.2549 33.2461 87.3772 33.3292 87.4796 33.4338C87.5819 33.5384 87.6623 33.6623 87.716 33.7984C87.7697 33.9345 87.7957 34.0799 87.7923 34.2261V39.1987ZM90.0058 39.1987V34.2261C90.0116 33.7881 89.9303 33.3533 89.7664 32.9469C89.6026 32.5406 89.3595 32.1708 89.0513 31.859C88.7432 31.5472 88.3761 31.2996 87.9713 31.1306C87.5665 30.9617 87.1322 30.8746 86.6934 30.8746C86.2547 30.8746 85.8203 30.9617 85.4156 31.1306C85.0108 31.2996 84.6437 31.5472 84.3355 31.859C84.0274 32.1708 83.7843 32.5406 83.6205 32.9469C83.4566 33.3533 83.3752 33.7881 83.3811 34.2261V39.1987C83.3752 39.6367 83.4566 40.0715 83.6205 40.4779C83.7843 40.8842 84.0274 41.254 84.3355 41.5658C84.6437 41.8776 85.0108 42.1252 85.4156 42.2942C85.8203 42.4631 86.2547 42.5502 86.6934 42.5502C87.1322 42.5502 87.5665 42.4631 87.9713 42.2942C88.3761 42.1252 88.7432 41.8776 89.0513 41.5658C89.3595 41.254 89.6026 40.8842 89.7664 40.4779C89.9303 40.0715 90.0116 39.6367 90.0058 39.1987ZM81.2847 31.1952H79.0712V42.2454H81.2847V31.1952ZM77.0128 33.4052V31.1952H70.3881V33.4052H72.6016V42.2454H74.7993V33.4052H77.0128ZM66.3517 38.3749H64.9287L65.6402 34.4442L66.3517 38.3749ZM69.2925 42.2425L67.3015 31.1922H63.9812L62.0049 42.2425H64.2342L64.5504 40.585H66.7481L67.0327 42.2425H69.2925ZM60.1064 42.2425V40.0354H56.0273L60.1064 33.4871V31.1952H53.4817V33.4052H57.5609L53.4817 39.9407V42.2454L60.1064 42.2425ZM51.4456 31.1952H49.2321V42.2454H51.4456V31.1952ZM47.1709 42.2454V40.0354H42.7597V31.1952H40.5461V42.2454H47.1709ZM35.7086 38.3778H34.288L34.9995 34.4471L35.7086 38.3778ZM38.6494 42.2454L36.6584 31.1952H33.3388L31.3624 42.2454H33.5911L33.908 40.5879H36.1051L36.3903 42.2454H38.6494ZM29.69 39.1987V31.1952H27.4765V39.1987C27.4799 39.3449 27.4539 39.4903 27.4002 39.6264C27.3465 39.7625 27.2661 39.8864 27.1638 39.991C27.0614 40.0956 26.9391 40.1787 26.8041 40.2355C26.6691 40.2922 26.5241 40.3215 26.3776 40.3215C26.2312 40.3215 26.0862 40.2922 25.9512 40.2355C25.8162 40.1787 25.6939 40.0956 25.5915 39.991C25.4891 39.8864 25.4087 39.7625 25.355 39.6264C25.3013 39.4903 25.2754 39.3449 25.2788 39.1987V31.1952H23.0653V39.1987C23.0594 39.6367 23.1408 40.0715 23.3047 40.4779C23.4685 40.8842 23.7116 41.254 24.0197 41.5658C24.3279 41.8776 24.695 42.1252 25.0998 42.2942C25.5045 42.4631 25.9389 42.5502 26.3776 42.5502C26.8164 42.5502 27.2507 42.4631 27.6555 42.2942C28.0603 42.1252 28.4274 41.8776 28.7356 41.5658C29.0437 41.254 29.2868 40.8842 29.4506 40.4779C29.6145 40.0715 29.6958 39.6367 29.69 39.1987ZM20.9906 39.2461C20.9906 37.2412 19.5851 36.3414 18.2078 35.6942C16.7374 35.0312 16.7374 34.5576 16.7374 34.1472C16.7423 33.8765 16.8521 33.6183 17.0438 33.4269C17.2355 33.2355 17.4941 33.1259 17.7652 33.1211C17.8985 33.1193 18.0309 33.1443 18.1544 33.1944C18.278 33.2446 18.3902 33.319 18.4845 33.4131C18.5788 33.5073 18.6533 33.6193 18.7035 33.7427C18.7538 33.8661 18.7788 33.9982 18.777 34.1314V34.5102H20.9906V34.1302C20.9941 33.7063 20.9132 33.2859 20.7523 32.8936C20.5915 32.5013 20.3541 32.1448 20.0538 31.8451C19.7536 31.5453 19.3966 31.3082 19.0037 31.1477C18.6108 30.9871 18.1897 30.9063 17.7652 30.9098C17.3393 30.9091 16.9175 30.9922 16.5239 31.1546C16.1303 31.317 15.7727 31.5553 15.4715 31.856C15.1704 32.1566 14.9317 32.5137 14.7691 32.9067C14.6065 33.2996 14.5232 33.7208 14.5239 34.146C14.5239 36.214 15.9943 37.1278 17.2908 37.7294C18.777 38.3924 18.777 38.8187 18.777 39.2449C18.7819 39.3864 18.7573 39.5275 18.7048 39.659C18.6523 39.7906 18.573 39.9099 18.4719 40.0093C18.3709 40.1087 18.2503 40.1861 18.1177 40.2366C17.9852 40.287 17.8436 40.3095 17.7019 40.3026C17.5636 40.3023 17.4268 40.2746 17.2992 40.2211C17.1717 40.1677 17.0561 40.0895 16.9591 39.9911C16.862 39.8928 16.7855 39.7762 16.7339 39.6481C16.6823 39.52 16.6566 39.383 16.6584 39.2449V38.9292H14.4449V39.2449C14.4449 40.1115 14.7897 40.9427 15.4035 41.5555C16.0173 42.1683 16.8497 42.5126 17.7177 42.5126C18.5857 42.5126 19.4182 42.1683 20.032 41.5555C20.6457 40.9427 20.9906 40.1115 20.9906 39.2449V39.2461ZM12.3871 31.1952H10.1736V42.2454H12.3871V31.1952ZM8.27633 31.1952H6.01539L4.62404 38.9935L3.21863 31.1952H0.989319L2.96567 42.2454H6.28593L8.27633 31.1952Z" fill="black"/>
<path d="M57.6335 23.9973C57.6357 24.2723 57.5348 24.5382 57.3506 24.7427C57.1663 24.9472 56.9122 25.0755 56.638 25.1023H56.5402C56.3946 25.1032 56.2503 25.0753 56.1156 25.0201C55.9809 24.9649 55.8585 24.8835 55.7556 24.7807C55.6526 24.6779 55.5711 24.5557 55.5158 24.4213C55.4605 24.2868 55.4325 24.1427 55.4335 23.9973V23.7289C55.4325 23.5835 55.4605 23.4394 55.5158 23.3049C55.5711 23.1704 55.6526 23.0483 55.7556 22.9455C55.8585 22.8427 55.9809 22.7613 56.1156 22.7061C56.2503 22.6509 56.3946 22.623 56.5402 22.6239H57.6312L57.6335 23.9973ZM56.5402 15.7096C56.4451 15.706 56.3498 15.7113 56.2556 15.7254C55.4978 15.7921 54.7927 16.1407 54.2802 16.7021C53.7677 17.2635 53.4852 17.9967 53.4887 18.7563V19.5748C53.4901 20.2529 53.712 20.9122 54.1212 21.4534C53.5347 22.0644 53.2112 22.8804 53.22 23.7266V23.9949C53.2178 24.8268 53.5286 25.6291 54.0908 26.2431C54.653 26.857 55.4256 27.2378 56.2556 27.31C56.3347 27.31 56.4313 27.3258 56.5402 27.3258C57.4203 27.319 58.2619 26.9647 58.8811 26.3402C59.5003 25.7157 59.8467 24.8719 59.8447 23.9932V22.6239H61.5048V20.4138H56.5402C56.3184 20.4124 56.1061 20.3239 55.9492 20.1673C55.7924 20.0106 55.7036 19.7986 55.7022 19.5772V18.7586C55.7045 18.5576 55.7793 18.3642 55.9129 18.2138C56.0465 18.0634 56.2299 17.9663 56.4295 17.9401C56.4649 17.9271 56.5026 17.9218 56.5402 17.9243C56.7599 17.9271 56.9696 18.0167 57.1233 18.1735C57.2769 18.3303 57.3621 18.5416 57.3601 18.761V19.3135H59.5736V18.761C59.574 17.9555 59.2549 17.1827 58.6859 16.6117C58.117 16.0406 57.3446 15.718 56.5379 15.7142L56.5402 15.7096ZM46.977 27.044V15.9937H44.7635V21.2031L43.0068 15.9937H40.3506V27.044H42.5641V21.5662L44.4297 27.044H46.977ZM38.2606 23.9973V20.4138H34.9562V22.6239H36.0448V23.9973C36.0481 24.1435 36.0222 24.2889 35.9685 24.425C35.9148 24.561 35.8344 24.685 35.732 24.7896C35.6297 24.8942 35.5074 24.9773 35.3724 25.0341C35.2374 25.0908 35.0924 25.12 34.9459 25.12C34.7994 25.12 34.6544 25.0908 34.5194 25.0341C34.3844 24.9773 34.2621 24.8942 34.1598 24.7896C34.0574 24.685 33.977 24.561 33.9233 24.425C33.8696 24.2889 33.8437 24.1435 33.8471 23.9973V19.0276C33.8437 18.8814 33.8696 18.736 33.9233 18.5999C33.977 18.4638 34.0574 18.3399 34.1598 18.2353C34.2621 18.1307 34.3844 18.0475 34.5194 17.9908C34.6544 17.934 34.7994 17.9048 34.9459 17.9048C35.0924 17.9048 35.2374 17.934 35.3724 17.9908C35.5074 18.0475 35.6297 18.1307 35.732 18.2353C35.8344 18.3399 35.9148 18.4638 35.9685 18.5999C36.0222 18.736 36.0481 18.8814 36.0448 19.0276V19.3117H38.2583V19.0276C38.2641 18.5896 38.1827 18.1548 38.0189 17.7484C37.855 17.3421 37.612 16.9723 37.3038 16.6605C36.9957 16.3487 36.6286 16.1011 36.2238 15.9321C35.819 15.7631 35.3846 15.6761 34.9459 15.6761C34.5072 15.6761 34.0728 15.7631 33.668 15.9321C33.2633 16.1011 32.8961 16.3487 32.588 16.6605C32.2798 16.9723 32.0368 17.3421 31.8729 17.7484C31.7091 18.1548 31.6277 18.5896 31.6335 19.0276V23.9973C31.6277 24.4353 31.7091 24.8701 31.8729 25.2764C32.0368 25.6828 32.2798 26.0526 32.588 26.3644C32.8961 26.6762 33.2633 26.9238 33.668 27.0927C34.0728 27.2617 34.5072 27.3487 34.9459 27.3487C35.3846 27.3487 35.819 27.2617 36.2238 27.0927C36.6286 26.9238 36.9957 26.6762 37.3038 26.3644C37.612 26.0526 37.855 25.6828 38.0189 25.2764C38.1827 24.8701 38.2641 24.4353 38.2583 23.9973H38.2606ZM29.5395 15.9937H27.326V27.044H29.5395V15.9937ZM25.2513 24.0446C25.2513 22.0398 23.8459 21.14 22.4686 20.4928C20.9982 19.8297 20.9982 19.3562 20.9982 18.9457C21.003 18.6751 21.1128 18.4169 21.3045 18.2255C21.4962 18.0341 21.7548 17.9244 22.0258 17.9196C22.1592 17.9179 22.2916 17.9428 22.4151 17.993C22.5387 18.0432 22.6509 18.1175 22.7452 18.2117C22.8395 18.3058 22.914 18.4179 22.9643 18.5413C23.0145 18.6646 23.0395 18.7968 23.0378 18.9299V19.3088H25.2513V18.9288C25.2549 18.5049 25.1739 18.0845 25.0131 17.6922C24.8522 17.2998 24.6148 16.9434 24.3146 16.6436C24.0143 16.3439 23.6574 16.1068 23.2644 15.9462C22.8715 15.7857 22.4504 15.7048 22.0258 15.7084C21.6 15.7076 21.1782 15.7908 20.7846 15.9532C20.391 16.1155 20.0334 16.3539 19.7323 16.6545C19.4311 16.9552 19.1924 17.3122 19.0298 17.7052C18.8672 18.0982 18.7839 18.5194 18.7847 18.9446C18.7847 21.0125 20.255 21.9264 21.5515 22.528C23.0377 23.191 23.0378 23.6172 23.0378 24.0435C23.0426 24.185 23.018 24.326 22.9655 24.4576C22.913 24.5892 22.8337 24.7085 22.7327 24.8079C22.6316 24.9073 22.511 24.9847 22.3784 25.0351C22.2459 25.0856 22.1043 25.1081 21.9626 25.1011C21.8243 25.1008 21.6875 25.0732 21.56 25.0197C21.4325 24.9663 21.3168 24.8881 21.2198 24.7897C21.1227 24.6914 21.0462 24.5748 20.9946 24.4467C20.943 24.3186 20.9173 24.1815 20.9191 24.0435V23.7277H18.7056V24.0435C18.7056 24.9101 19.0504 25.7413 19.6642 26.3541C20.2779 26.9669 21.1104 27.3112 21.9784 27.3112C22.8464 27.3112 23.6789 26.9669 24.2927 26.3541C24.9064 25.7413 25.2513 24.9101 25.2513 24.0435V24.0446ZM16.6473 27.0428V24.8339H12.2202V22.6239H15.5247V20.4138H12.2202V18.2038H16.6473V15.9937H10.0067V27.044L16.6473 27.0428ZM5.73313 23.1752C5.73407 23.6124 5.56163 24.0322 5.25351 24.3428C4.94539 24.6533 4.52665 24.8295 4.08881 24.8328H3.53543V18.2038H4.08881C4.306 18.2041 4.52098 18.2473 4.72137 18.3309C4.92176 18.4145 5.10362 18.5368 5.25645 18.6909C5.40929 18.845 5.53009 19.0277 5.6119 19.2286C5.69371 19.4294 5.73491 19.6445 5.73313 19.8613V23.1752ZM7.94664 23.1752V19.8642C7.9478 19.3573 7.84892 18.8552 7.65565 18.3865C7.46238 17.9177 7.1785 17.4916 6.82025 17.1324C6.46199 16.7733 6.03637 16.4881 5.5677 16.2932C5.09903 16.0983 4.5965 15.9976 4.08881 15.9966H1.31958V27.0469H4.08647C5.11084 27.042 6.09161 26.6324 6.81448 25.9077C7.53734 25.183 7.94354 24.2021 7.9443 23.1793" fill="black"/>
<path d="M109.834 11.8425V9.63249H105.422V0.792271H103.211V11.8425H109.834ZM98.3709 7.97495H96.9455L97.657 4.04421L98.3709 7.97495ZM101.312 11.8425L99.3207 0.792271H96.0004L94.0241 11.8425H96.2534L96.5696 10.185H98.7673L99.0519 11.8425H101.312ZM92.1262 11.8425V0.792271H89.9127V6.00169L88.1559 0.792271H85.4997V11.8425H87.7132V6.36477L89.5789 11.8425H92.1262ZM81.1816 8.79583C81.185 8.94204 81.1591 9.08744 81.1054 9.22351C81.0517 9.35957 80.9713 9.48355 80.8689 9.58815C80.7665 9.69275 80.6442 9.77586 80.5092 9.83261C80.3742 9.88935 80.2292 9.91859 80.0828 9.91859C79.9363 9.91859 79.7913 9.88935 79.6563 9.83261C79.5213 9.77586 79.399 9.69275 79.2966 9.58815C79.1943 9.48355 79.1139 9.35957 79.0602 9.22351C79.0064 9.08744 78.9805 8.94204 78.9839 8.79583V3.82613C78.9805 3.67992 79.0064 3.53451 79.0602 3.39844C79.1139 3.26238 79.1943 3.1384 79.2966 3.0338C79.399 2.92921 79.5213 2.84609 79.6563 2.78935C79.7913 2.7326 79.9363 2.70337 80.0828 2.70337C80.2292 2.70337 80.3742 2.7326 80.5092 2.78935C80.6442 2.84609 80.7665 2.92921 80.8689 3.0338C80.9713 3.1384 81.0517 3.26238 81.1054 3.39844C81.1591 3.53451 81.185 3.67992 81.1816 3.82613V8.79583ZM83.3951 8.79583V3.82613C83.4009 3.38812 83.3196 2.95332 83.1557 2.54697C82.9919 2.14061 82.7488 1.77081 82.4407 1.45901C82.1325 1.14721 81.7654 0.899637 81.3606 0.73066C80.9558 0.561683 80.5215 0.47467 80.0828 0.47467C79.644 0.47467 79.2097 0.561683 78.8049 0.73066C78.4001 0.899637 78.033 1.14721 77.7248 1.45901C77.4167 1.77081 77.1736 2.14061 77.0098 2.54697C76.8459 2.95332 76.7645 3.38812 76.7704 3.82613V8.79583C76.7645 9.23383 76.8459 9.66863 77.0098 10.075C77.1736 10.4813 77.4167 10.8511 77.7248 11.1629C78.033 11.4747 78.4001 11.7223 78.8049 11.8913C79.2097 12.0603 79.644 12.1473 80.0828 12.1473C80.5215 12.1473 80.9558 12.0603 81.3606 11.8913C81.7654 11.7223 82.1325 11.4747 82.4407 11.1629C82.7488 10.8511 82.9919 10.4813 83.1557 10.075C83.3196 9.66863 83.4009 9.23383 83.3951 8.79583ZM74.674 0.792271H72.4605V11.8425H74.674V0.792271ZM70.3992 3.00233V0.792271H63.7774V3.00233H65.991V11.8425H68.1886V3.00233H70.3992ZM59.7381 7.97203H58.3151L59.0266 4.04129L59.7381 7.97203ZM62.6789 11.8396L60.6879 0.789345H57.3676L55.3913 11.8396H57.6206L57.9368 10.1821H60.1345L60.4191 11.8396H62.6789ZM54.2892 3.00233V0.792271H47.6645V3.00233H49.878V11.8425H52.0757V3.00233H54.2892ZM45.6044 8.79583V0.792271H43.3909V8.79583C43.3943 8.94204 43.3684 9.08744 43.3147 9.22351C43.261 9.35957 43.1806 9.48355 43.0782 9.58815C42.9758 9.69275 42.8535 9.77586 42.7185 9.83261C42.5835 9.88935 42.4385 9.91859 42.2921 9.91859C42.1456 9.91859 42.0006 9.88935 41.8656 9.83261C41.7306 9.77586 41.6083 9.69275 41.5059 9.58815C41.4036 9.48355 41.3232 9.35957 41.2695 9.22351C41.2158 9.08744 41.1898 8.94204 41.1932 8.79583V0.792271H38.9797V8.79583C38.9739 9.23383 39.0552 9.66863 39.2191 10.075C39.3829 10.4813 39.626 10.8511 39.9341 11.1629C40.2423 11.4747 40.6094 11.7223 41.0142 11.8913C41.419 12.0603 41.8533 12.1473 42.2921 12.1473C42.7308 12.1473 43.1651 12.0603 43.5699 11.8913C43.9747 11.7223 44.3418 11.4747 44.65 11.1629C44.9581 10.8511 45.2012 10.4813 45.365 10.075C45.5289 9.66863 45.6103 9.23383 45.6044 8.79583ZM34.7061 4.66279C34.7088 4.87988 34.6683 5.09535 34.5868 5.29664C34.5053 5.49794 34.3846 5.68104 34.2315 5.8353C34.0785 5.98955 33.8963 6.11188 33.6955 6.19515C33.4946 6.27842 33.2792 6.32097 33.0618 6.32033H32.5084V3.00233H33.0618C33.279 3.00263 33.494 3.04582 33.6943 3.12942C33.8947 3.21302 34.0766 3.33538 34.2294 3.48944C34.3823 3.64351 34.5031 3.82624 34.5849 4.02711C34.6667 4.22798 34.7079 4.44303 34.7061 4.65987V4.66279ZM36.9196 4.65987C36.9208 4.15297 36.8219 3.65081 36.6286 3.18208C36.4353 2.71335 36.1515 2.28724 35.7932 1.92807C35.435 1.56891 35.0093 1.28374 34.5407 1.08886C34.072 0.893973 33.5695 0.793191 33.0618 0.792271H30.2949V11.8425H32.5084V8.52746H33.0618C33.5698 8.5277 34.0729 8.42771 34.5421 8.23323C35.0112 8.03876 35.4373 7.75363 35.7958 7.39424C36.1543 7.03484 36.4381 6.60826 36.631 6.13901C36.8238 5.66976 36.9219 5.16709 36.9196 4.65987ZM28.1288 11.8425V0.792271H25.441L23.433 6.17533L21.442 0.792271H18.7384V11.8425H20.9519V5.82804L22.3421 9.63249H24.524L25.9153 5.82804V11.8425H28.1288ZM14.418 8.79583C14.4213 8.94204 14.3954 9.08744 14.3417 9.22351C14.288 9.35957 14.2076 9.48355 14.1052 9.58815C14.0028 9.69275 13.8806 9.77586 13.7456 9.83261C13.6106 9.88935 13.4656 9.91859 13.3191 9.91859C13.1726 9.91859 13.0276 9.88935 12.8926 9.83261C12.7576 9.77586 12.6353 9.69275 12.533 9.58815C12.4306 9.48355 12.3502 9.35957 12.2965 9.22351C12.2428 9.08744 12.2169 8.94204 12.2202 8.79583V3.82613C12.2169 3.67992 12.2428 3.53451 12.2965 3.39844C12.3502 3.26238 12.4306 3.1384 12.533 3.0338C12.6353 2.92921 12.7576 2.84609 12.8926 2.78935C13.0276 2.7326 13.1726 2.70337 13.3191 2.70337C13.4656 2.70337 13.6106 2.7326 13.7456 2.78935C13.8806 2.84609 14.0028 2.92921 14.1052 3.0338C14.2076 3.1384 14.288 3.26238 14.3417 3.39844C14.3954 3.53451 14.4213 3.67992 14.418 3.82613V8.79583ZM16.6315 8.79583V3.82613C16.6373 3.38812 16.5559 2.95332 16.3921 2.54697C16.2282 2.14061 15.9852 1.77081 15.677 1.45901C15.3688 1.14721 15.0017 0.899637 14.597 0.73066C14.1922 0.561683 13.7578 0.47467 13.3191 0.47467C12.8804 0.47467 12.446 0.561683 12.0412 0.73066C11.6365 0.899637 11.2693 1.14721 10.9612 1.45901C10.653 1.77081 10.41 2.14061 10.2461 2.54697C10.0823 2.95332 10.0009 3.38812 10.0067 3.82613V8.79583C10.0009 9.23383 10.0823 9.66863 10.2461 10.075C10.41 10.4813 10.653 10.8511 10.9612 11.1629C11.2693 11.4747 11.6365 11.7223 12.0412 11.8913C12.446 12.0603 12.8804 12.1473 13.3191 12.1473C13.7578 12.1473 14.1922 12.0603 14.597 11.8913C15.0017 11.7223 15.3688 11.4747 15.677 11.1629C15.9852 10.8511 16.2282 10.4813 16.3921 10.075C16.5559 9.66863 16.6373 9.23383 16.6315 8.79583ZM4.6422 0.508121C3.76241 0.510743 2.91942 0.860851 2.29732 1.48198C1.67522 2.10311 1.32456 2.94479 1.32193 3.8232V8.7929C1.3161 9.23091 1.39747 9.66571 1.56131 10.0721C1.72515 10.4784 1.96822 10.8482 2.27638 11.16C2.58454 11.4718 2.95166 11.7194 3.35643 11.8884C3.7612 12.0573 4.19557 12.1444 4.6343 12.1444C5.07303 12.1444 5.50738 12.0573 5.91215 11.8884C6.31693 11.7194 6.68405 11.4718 6.99221 11.16C7.30037 10.8482 7.54343 10.4784 7.70727 10.0721C7.87112 9.66571 7.95249 9.23091 7.94665 8.7929V8.52746H5.73314V8.79583C5.73652 8.94204 5.7106 9.08744 5.6569 9.22351C5.6032 9.35957 5.5228 9.48355 5.42043 9.58815C5.31805 9.69275 5.19577 9.77586 5.06077 9.83261C4.92577 9.88935 4.78077 9.91859 4.6343 9.91859C4.48782 9.91859 4.34282 9.88935 4.20781 9.83261C4.07281 9.77586 3.95054 9.69275 3.84817 9.58815C3.7458 9.48355 3.66539 9.35957 3.61169 9.22351C3.55798 9.08744 3.53206 8.94204 3.53544 8.79583V3.82613C3.53206 3.67992 3.55798 3.53451 3.61169 3.39844C3.66539 3.26238 3.7458 3.1384 3.84817 3.0338C3.95054 2.92921 4.07281 2.84609 4.20781 2.78935C4.34282 2.7326 4.48782 2.70337 4.6343 2.70337C4.78077 2.70337 4.92577 2.7326 5.06077 2.78935C5.19577 2.84609 5.31805 2.92921 5.42043 3.0338C5.5228 3.1384 5.6032 3.26238 5.6569 3.39844C5.7106 3.53451 5.73652 3.67992 5.73314 3.82613V4.11028H7.94665V3.82613C7.94497 2.95016 7.59679 2.11031 6.97789 1.48943C6.359 0.868549 5.51952 0.516901 4.6422 0.511043" fill="black"/>
</svg>
