<?xml version="1.0" standalone="no"?>
<!DOCTYPE svg PUBLIC "-//W3C//DTD SVG 20010904//EN"
 "http://www.w3.org/TR/2001/REC-SVG-20010904/DTD/svg10.dtd">
<svg version="1.0" xmlns="http://www.w3.org/2000/svg"
 width="223.000000pt" height="239.000000pt" viewBox="0 0 223.000000 239.000000"
 preserveAspectRatio="xMidYMid meet">

<g transform="translate(0.000000,239.000000) scale(0.100000,-0.100000)"
fill="#000000" stroke="none">
<path d="M1075 2121 c-9 -16 3 -31 26 -31 14 0 19 6 17 17 -4 20 -33 29 -43
14z"/>
<path d="M923 2024 c-7 -18 11 -39 26 -30 17 11 13 46 -4 46 -9 0 -18 -7 -22
-16z"/>
<path d="M1234 2025 c-8 -19 12 -36 33 -28 19 7 12 37 -10 41 -9 2 -20 -4 -23
-13z"/>
<path d="M1077 1954 c-13 -14 -7 -52 10 -58 25 -10 51 20 37 42 -12 19 -36 27
-47 16z"/>
<path d="M764 1935 c-4 -9 -2 -21 4 -27 15 -15 44 -1 40 19 -4 23 -36 29 -44
8z"/>
<path d="M1393 1934 c-7 -18 11 -39 26 -30 17 11 13 46 -4 46 -9 0 -18 -7 -22
-16z"/>
<path d="M922 1858 c-27 -27 5 -73 38 -53 16 10 12 52 -6 59 -20 8 -18 8 -32
-6z"/>
<path d="M1230 1856 c-27 -33 18 -72 48 -42 13 13 14 20 6 34 -15 23 -38 26
-54 8z"/>
<path d="M612 1847 c-15 -17 1 -42 23 -33 18 6 17 37 -1 43 -6 2 -16 -2 -22
-10z"/>
<path d="M1552 1847 c-15 -17 1 -42 23 -33 18 6 17 37 -1 43 -6 2 -16 -2 -22
-10z"/>
<path d="M765 1766 c-20 -15 -15 -43 10 -52 18 -7 45 12 45 32 0 22 -35 35
-55 20z"/>
<path d="M1067 1773 c-11 -11 -8 -48 5 -61 30 -30 75 0 64 43 -5 19 -13 25
-35 25 -15 0 -31 -3 -34 -7z"/>
<path d="M1390 1765 c-19 -23 -8 -50 20 -50 19 0 26 6 28 24 5 35 -26 53 -48
26z"/>
<path d="M457 1764 c-16 -16 -7 -44 14 -44 15 0 20 5 17 22 -3 22 -19 33 -31
22z"/>
<path d="M1711 1761 c-17 -11 -7 -41 13 -41 22 0 30 20 15 36 -9 8 -19 10 -28
5z"/>
<path d="M912 1678 c-30 -30 -1 -75 43 -64 22 6 26 11 23 39 -2 26 -8 33 -28
35 -14 2 -31 -3 -38 -10z"/>
<path d="M1220 1675 c-10 -12 -10 -21 -2 -40 14 -31 56 -34 72 -5 24 44 -38
83 -70 45z"/>
<path d="M301 1671 c-17 -11 -7 -41 13 -41 22 0 30 20 15 36 -9 8 -19 10 -28
5z"/>
<path d="M600 1665 c-10 -12 -10 -18 0 -30 20 -25 55 -15 55 15 0 30 -35 40
-55 15z"/>
<path d="M1544 1666 c-10 -26 4 -48 28 -44 17 2 23 10 23 28 0 18 -6 26 -23
28 -13 2 -25 -3 -28 -12z"/>
<path d="M1873 1673 c-22 -8 -15 -43 7 -43 13 0 20 7 20 19 0 22 -9 30 -27 24z"/>
<path d="M1062 1598 c-15 -15 -15 -61 0 -76 28 -28 88 -2 88 38 0 40 -60 66
-88 38z"/>
<path d="M750 1585 c-10 -12 -10 -21 -2 -40 14 -31 56 -34 72 -5 24 44 -38 83
-70 45z"/>
<path d="M1382 1588 c-30 -30 -1 -75 43 -64 22 6 26 11 23 39 -2 26 -8 33 -28
35 -14 2 -31 -3 -38 -10z"/>
<path d="M444 1576 c-10 -26 4 -48 28 -44 17 2 23 10 23 28 0 18 -6 26 -23 28
-13 2 -25 -3 -28 -12z"/>
<path d="M1694 1575 c-10 -25 4 -45 30 -45 27 0 42 26 25 46 -15 19 -48 18
-55 -1z"/>
<path d="M905 1500 c-27 -29 -10 -74 28 -78 37 -4 57 13 57 49 0 47 -53 65
-85 29z"/>
<path d="M1214 1495 c-15 -23 -15 -27 0 -50 10 -15 26 -25 41 -25 15 0 31 10
41 25 15 23 15 27 0 50 -10 15 -26 25 -41 25 -15 0 -31 -10 -41 -25z"/>
<path d="M596 1494 c-19 -18 -19 -20 -6 -45 13 -23 52 -25 70 -4 10 12 10 21
2 40 -13 29 -43 33 -66 9z"/>
<path d="M1536 1495 c-19 -20 -20 -26 -3 -49 27 -38 95 2 71 42 -15 23 -48 27
-68 7z"/>
<path d="M297 1484 c-16 -16 -6 -35 16 -32 12 2 22 10 22 18 0 16 -26 25 -38
14z"/>
<path d="M1860 1470 c0 -13 7 -20 20 -20 13 0 20 7 20 20 0 13 -7 20 -20 20
-13 0 -20 -7 -20 -20z"/>
<path d="M1060 1420 c-39 -39 -14 -100 43 -100 27 0 57 32 57 61 0 19 -45 59
-66 59 -8 0 -23 -9 -34 -20z"/>
<path d="M745 1410 c-27 -29 -10 -74 28 -78 37 -4 57 13 57 49 0 47 -53 65
-85 29z"/>
<path d="M1377 1412 c-34 -37 -15 -82 33 -82 49 0 68 51 32 83 -24 22 -45 21
-65 -1z"/>
<path d="M447 1404 c-13 -13 -7 -52 8 -58 27 -10 46 5 43 33 -3 26 -35 41 -51
25z"/>
<path d="M1702 1398 c-18 -18 -15 -36 7 -48 15 -7 23 -6 35 6 9 8 16 19 16 23
0 11 -23 31 -35 31 -6 0 -16 -5 -23 -12z"/>
<path d="M897 1322 c-35 -38 -8 -92 46 -92 27 0 57 32 57 61 0 43 -73 65 -103
31z"/>
<path d="M1203 1314 c-15 -24 -15 -29 -2 -53 27 -49 109 -34 109 20 0 39 -19
59 -55 59 -26 0 -39 -6 -52 -26z"/>
<path d="M596 1311 c-19 -21 -13 -47 15 -61 10 -6 20 -10 23 -10 10 0 36 32
36 45 0 17 -27 45 -44 45 -7 0 -20 -8 -30 -19z"/>
<path d="M1536 1311 c-19 -21 -13 -47 15 -61 10 -6 20 -10 23 -10 10 0 36 32
36 45 0 17 -27 45 -44 45 -7 0 -20 -8 -30 -19z"/>
<path d="M294 1295 c-4 -9 -2 -21 4 -27 15 -15 44 -1 40 19 -4 23 -36 29 -44
8z"/>
<path d="M1863 1294 c-8 -21 13 -42 28 -27 13 13 5 43 -11 43 -6 0 -13 -7 -17
-16z"/>
<path d="M1047 1242 c-22 -24 -22 -75 1 -95 19 -18 68 -22 89 -9 6 4 17 21 23
37 9 24 8 33 -8 54 -25 34 -80 40 -105 13z"/>
<path d="M750 1230 c-11 -11 -20 -27 -20 -35 0 -17 35 -55 51 -55 49 0 68 66
27 94 -29 20 -34 20 -58 -4z"/>
<path d="M1382 1234 c-30 -21 -29 -59 3 -80 23 -15 27 -15 50 0 32 21 33 59 3
80 -12 9 -25 16 -28 16 -3 0 -16 -7 -28 -16z"/>
<path d="M452 1221 c-8 -4 -12 -19 -10 -32 2 -18 9 -24 28 -24 19 0 26 6 28
24 3 20 -11 41 -28 41 -3 0 -11 -4 -18 -9z"/>
<path d="M1700 1215 c-26 -31 18 -71 47 -43 12 12 13 20 4 37 -14 25 -34 27
-51 6z"/>
<path d="M897 1142 c-45 -49 8 -118 68 -90 33 15 42 51 21 83 -20 30 -65 34
-89 7z"/>
<path d="M1210 1140 c-25 -25 -25 -41 -2 -70 34 -43 102 -23 102 30 0 54 -61
79 -100 40z"/>
<path d="M590 1121 c-13 -25 -13 -27 6 -45 23 -24 53 -20 66 9 8 19 8 28 -2
40 -18 21 -57 19 -70 -4z"/>
<path d="M1530 1121 c-13 -25 -13 -27 6 -45 23 -24 53 -20 66 9 8 19 8 28 -2
40 -18 21 -57 19 -70 -4z"/>
<path d="M294 1115 c-7 -18 3 -35 21 -35 21 0 28 19 15 35 -16 19 -29 19 -36
0z"/>
<path d="M1867 1124 c-16 -16 -7 -44 14 -44 15 0 20 5 17 22 -3 22 -19 33 -31
22z"/>
<path d="M1057 1052 c-24 -26 -21 -68 5 -86 29 -20 41 -20 68 2 14 11 23 29
23 47 0 50 -63 74 -96 37z"/>
<path d="M746 1044 c-21 -21 -20 -47 2 -67 22 -20 53 -22 70 -5 15 15 15 61 0
76 -17 17 -54 15 -72 -4z"/>
<path d="M1372 1048 c-28 -28 -2 -88 38 -88 40 0 66 60 38 88 -15 15 -61 15
-76 0z"/>
<path d="M444 1026 c-10 -26 4 -48 28 -44 17 2 23 10 23 28 0 18 -6 26 -23 28
-13 2 -25 -3 -28 -12z"/>
<path d="M1695 1030 c-11 -17 5 -50 24 -50 24 0 43 23 35 44 -7 18 -49 22 -59
6z"/>
<path d="M902 958 c-28 -28 -2 -88 38 -88 10 0 26 7 34 16 9 8 16 24 16 34 0
40 -60 66 -88 38z"/>
<path d="M1215 950 c-24 -27 -13 -68 22 -76 34 -9 57 6 61 40 6 53 -47 76 -83
36z"/>
<path d="M590 941 c-16 -31 4 -63 37 -59 55 7 55 69 0 76 -18 2 -29 -3 -37
-17z"/>
<path d="M1530 941 c-16 -31 4 -63 37 -59 34 4 52 32 37 56 -16 26 -60 28 -74
3z"/>
<path d="M295 930 c-4 -7 -3 -16 3 -22 14 -14 45 -2 40 15 -6 16 -34 21 -43 7z"/>
<path d="M1860 920 c0 -13 7 -20 20 -20 13 0 20 7 20 20 0 13 -7 20 -20 20
-13 0 -20 -7 -20 -20z"/>
<path d="M1061 866 c-16 -19 -10 -66 10 -79 26 -16 68 0 75 29 12 47 -55 87
-85 50z"/>
<path d="M752 858 c-29 -29 -3 -72 40 -66 19 2 23 9 23 38 0 30 -4 35 -25 38
-14 2 -31 -3 -38 -10z"/>
<path d="M1380 855 c-17 -21 -4 -65 19 -65 34 0 51 12 51 34 0 42 -45 62 -70
31z"/>
<path d="M444 846 c-10 -26 4 -48 28 -44 17 2 23 10 23 28 0 18 -6 26 -23 28
-13 2 -25 -3 -28 -12z"/>
<path d="M1694 845 c-10 -25 4 -45 30 -45 27 0 42 26 25 46 -15 19 -48 18 -55
-1z"/>
<path d="M910 766 c-6 -8 -10 -25 -8 -38 2 -19 9 -23 38 -23 29 0 36 4 38 23
4 28 -14 52 -38 52 -10 0 -23 -7 -30 -14z"/>
<path d="M1222 768 c-27 -27 -6 -68 35 -68 32 0 46 31 27 58 -17 24 -44 28
-62 10z"/>
<path d="M601 756 c-17 -20 -2 -46 25 -46 29 0 41 24 24 45 -16 19 -34 19 -49
1z"/>
<path d="M1541 756 c-17 -20 -3 -46 24 -46 29 0 38 13 30 40 -7 23 -37 26 -54
6z"/>
<path d="M293 744 c-8 -22 18 -37 36 -20 7 8 10 19 7 25 -10 16 -36 13 -43 -5z"/>
<path d="M1862 738 c2 -13 10 -23 18 -23 8 0 16 10 18 23 3 17 -2 22 -18 22
-16 0 -21 -5 -18 -22z"/>
<path d="M1066 671 c-14 -15 -15 -24 -6 -40 6 -12 16 -22 23 -22 51 -5 75 32
41 65 -21 21 -37 20 -58 -3z"/>
<path d="M762 668 c-16 -16 -15 -33 2 -47 28 -23 68 17 45 45 -14 17 -31 18
-47 2z"/>
<path d="M1387 674 c-13 -13 -7 -52 8 -58 27 -10 46 5 43 33 -3 26 -35 41 -51
25z"/>
<path d="M453 654 c-8 -21 13 -42 28 -27 13 13 5 43 -11 43 -6 0 -13 -7 -17
-16z"/>
<path d="M1704 655 c-7 -18 3 -35 21 -35 15 0 28 27 19 41 -8 14 -34 11 -40
-6z"/>
<path d="M923 583 c-18 -7 -16 -50 2 -57 24 -9 45 4 45 29 0 18 -22 40 -33 34
-1 0 -8 -3 -14 -6z"/>
<path d="M1230 575 c-26 -31 18 -71 47 -43 12 12 13 20 4 37 -14 25 -34 27
-51 6z"/>
<path d="M612 572 c-17 -12 -4 -44 17 -40 17 4 22 39 6 45 -5 1 -16 -1 -23 -5z"/>
<path d="M1552 572 c-17 -12 -4 -44 17 -40 17 4 22 39 6 45 -5 1 -16 -1 -23
-5z"/>
<path d="M1076 484 c-19 -19 -17 -33 7 -48 24 -15 56 17 41 41 -15 24 -29 26
-48 7z"/>
<path d="M764 475 c-7 -18 3 -35 21 -35 21 0 28 19 15 35 -16 19 -29 19 -36 0z"/>
<path d="M1397 484 c-15 -15 -7 -45 11 -42 9 2 17 12 17 22 0 20 -16 31 -28
20z"/>
<path d="M927 394 c-16 -16 -7 -44 14 -44 15 0 20 5 17 22 -3 22 -19 33 -31
22z"/>
<path d="M1241 391 c-17 -11 -7 -41 13 -41 22 0 30 20 15 36 -9 8 -19 10 -28
5z"/>
<path d="M1075 290 c-9 -15 4 -30 26 -30 12 0 19 7 19 20 0 21 -33 29 -45 10z"/>
</g>
</svg>
