<svg width="16" height="17" viewBox="0 0 16 17" fill="none" xmlns="http://www.w3.org/2000/svg">
<path d="M8 17.0002C7.70175 17.0002 7.45193 16.8974 7.25053 16.692C7.04842 16.4872 6.94737 16.2333 6.94737 15.9301V3.9718L1.81579 9.1885C1.60526 9.40252 1.35509 9.50953 1.06526 9.50953C0.77614 9.50953 0.526315 9.40252 0.315789 9.1885C0.105263 8.97448 0 8.72479 0 8.43943C0 8.15408 0.105263 7.90439 0.315789 7.69037L7.26316 0.627771C7.36842 0.520762 7.48246 0.444785 7.60526 0.399842C7.72807 0.355611 7.85965 0.333496 8 0.333496C8.14035 0.333496 8.27649 0.355611 8.40842 0.399842C8.53965 0.444785 8.64912 0.520762 8.73684 0.627771L15.6842 7.69037C15.8947 7.90439 16 8.15408 16 8.43943C16 8.72479 15.8947 8.97448 15.6842 9.1885C15.4737 9.40252 15.2235 9.50953 14.9337 9.50953C14.6446 9.50953 14.3947 9.40252 14.1842 9.1885L9.05263 3.9718V15.9301C9.05263 16.2333 8.95193 16.4872 8.75053 16.692C8.54842 16.8974 8.29824 17.0002 8 17.0002Z" fill="white"/>
</svg>
