<svg width="800" height="800" viewBox="0 0 800 800" fill="none" xmlns="http://www.w3.org/2000/svg">
<path d="M399.654 266.7C326.254 266.7 266.354 326.6 266.354 400C266.354 473.4 326.254 533.3 399.654 533.3C473.054 533.3 532.954 473.4 532.954 400C532.954 326.6 473.054 266.7 399.654 266.7ZM799.454 400C799.454 344.8 799.954 290.1 796.854 235C793.754 171 779.154 114.2 732.354 67.4C685.454 20.5 628.754 6.00001 564.754 2.90001C509.554 -0.199993 454.854 0.300008 399.754 0.300008C344.554 0.300008 289.854 -0.199993 234.754 2.90001C170.754 6.00001 113.954 20.6 67.154 67.4C20.254 114.3 5.75403 171 2.65403 235C-0.445965 290.2 0.0540364 344.9 0.0540364 400C0.0540364 455.1 -0.445965 509.9 2.65403 565C5.75403 629 20.354 685.8 67.154 732.6C114.054 779.5 170.754 794 234.754 797.1C289.954 800.2 344.654 799.7 399.754 799.7C454.954 799.7 509.654 800.2 564.754 797.1C628.754 794 685.554 779.4 732.354 732.6C779.254 685.7 793.754 629 796.854 565C800.054 509.9 799.454 455.2 799.454 400V400ZM399.654 605.1C286.154 605.1 194.554 513.5 194.554 400C194.554 286.5 286.154 194.9 399.654 194.9C513.154 194.9 604.754 286.5 604.754 400C604.754 513.5 513.154 605.1 399.654 605.1ZM613.154 234.4C586.654 234.4 565.254 213 565.254 186.5C565.254 160 586.654 138.6 613.154 138.6C639.654 138.6 661.054 160 661.054 186.5C661.062 192.793 659.828 199.025 657.424 204.84C655.02 210.655 651.492 215.939 647.042 220.388C642.593 224.838 637.309 228.366 631.494 230.77C625.679 233.174 619.447 234.408 613.154 234.4V234.4Z" fill="black"/>
</svg>
