<?xml version="1.0" encoding="utf-8"?>
<svg width="262" height="130" viewBox="20.577 17.855 84.191 98.327" fill="none" xmlns="http://www.w3.org/2000/svg">
  <path d="M62.6699 63.373C61.9483 63.359 61.2388 63.5598 60.632 63.9499C60.0251 64.3401 59.5484 64.9018 59.2626 65.5635C58.9768 66.2252 58.8948 66.9569 59.0271 67.6654C59.1594 68.3738 59.5001 69.0268 60.0056 69.5412C60.5111 70.0555 61.1586 70.4079 61.8655 70.5534C62.5724 70.6989 63.3067 70.6309 63.9747 70.358C64.6428 70.0852 65.2143 69.6199 65.6164 69.0215C66.0185 68.423 66.2331 67.7186 66.2326 66.998C66.2401 66.046 65.8693 65.1299 65.2015 64.4504C64.5337 63.7709 63.6233 63.3835 62.6699 63.373" fill="black"/>
  <path d="M62.6699 30.5835C63.0152 30.5903 63.3547 30.4944 63.6451 30.3078C63.9356 30.1213 64.1638 29.8526 64.3007 29.536C64.4376 29.2195 64.4769 28.8694 64.4137 28.5304C64.3506 28.1914 64.1877 27.8789 63.9459 27.6327C63.7042 27.3865 63.3944 27.2177 63.0562 27.148C62.718 27.0782 62.3667 27.1106 62.047 27.241C61.7273 27.3714 61.4537 27.5939 61.2612 27.8801C61.0686 28.1664 60.9658 28.5034 60.9659 28.8482C60.962 29.3037 61.1392 29.7423 61.4586 30.0676C61.7781 30.3929 62.2137 30.5784 62.6699 30.5835Z" fill="black"/>
  <path d="M62.6699 103.417C62.3248 103.41 61.9855 103.506 61.6953 103.693C61.405 103.879 61.177 104.148 61.0402 104.465C60.9034 104.781 60.8641 105.131 60.9273 105.47C60.9905 105.809 61.1533 106.121 61.3949 106.367C61.6366 106.613 61.9462 106.782 62.2842 106.851C62.6222 106.921 62.9734 106.889 63.293 106.759C63.6126 106.628 63.886 106.406 64.0786 106.12C64.2711 105.834 64.3739 105.497 64.374 105.152C64.378 104.697 64.2009 104.258 63.8814 103.933C63.5619 103.608 63.1262 103.422 62.6699 103.417" fill="black"/>
  <path d="M70.7838 35.3579C71.1291 35.3648 71.4686 35.2688 71.759 35.0822C72.0494 34.8957 72.2776 34.627 72.4145 34.3104C72.5514 33.9939 72.5908 33.6438 72.5276 33.3048C72.4644 32.9658 72.3016 32.6533 72.0598 32.4071C71.818 32.1609 71.5083 31.9921 71.1701 31.9224C70.8319 31.8526 70.4805 31.885 70.1608 32.0154C69.8411 32.1458 69.5676 32.3683 69.375 32.6545C69.1825 32.9408 69.0797 33.2778 69.0797 33.6226C69.0757 34.0782 69.2528 34.5168 69.5723 34.8421C69.8918 35.1675 70.3275 35.353 70.7838 35.3579" fill="black"/>
  <path d="M70.7838 98.6532C70.4387 98.6465 70.0994 98.7425 69.8091 98.929C69.5189 99.1156 69.2908 99.3842 69.1541 99.7006C69.0173 100.017 68.978 100.367 69.0412 100.706C69.1043 101.045 69.2671 101.357 69.5088 101.603C69.7505 101.849 70.06 102.018 70.3981 102.088C70.7361 102.157 71.0873 102.125 71.4069 101.995C71.7264 101.864 71.9999 101.642 72.1924 101.356C72.3849 101.07 72.4878 100.733 72.4878 100.388C72.4919 99.9329 72.3148 99.4943 71.9953 99.169C71.6758 98.8436 71.2401 98.6581 70.7838 98.6532" fill="black"/>
  <path d="M95.1107 55.7454C94.7655 55.7385 94.426 55.8345 94.1355 56.021C93.8451 56.2076 93.6169 56.4763 93.48 56.7928C93.3431 57.1094 93.3037 57.4595 93.3669 57.7985C93.4301 58.1375 93.593 58.45 93.8347 58.6962C94.0765 58.9424 94.3862 59.1111 94.7244 59.1809C95.0627 59.2507 95.414 59.2183 95.7337 59.0879C96.0534 58.9575 96.3269 58.735 96.5195 58.4487C96.712 58.1625 96.8148 57.8255 96.8148 57.4807C96.8188 57.0251 96.6417 56.5865 96.3222 56.2611C96.0027 55.9358 95.567 55.7503 95.1107 55.7454" fill="black"/>
  <path d="M95.1107 84.3592C94.7656 84.3524 94.4263 84.4484 94.1361 84.635C93.8458 84.8215 93.6178 85.0901 93.481 85.4066C93.3442 85.723 93.3049 86.0729 93.3681 86.4117C93.4313 86.7505 93.5941 87.0629 93.8357 87.309C94.0774 87.5551 94.387 87.7238 94.725 87.7935C95.063 87.8633 95.4142 87.8309 95.7338 87.7006C96.0534 87.5704 96.3268 87.348 96.5194 87.062C96.7119 86.7759 96.8147 86.4391 96.8148 86.0945C96.8188 85.6389 96.6417 85.2003 96.3222 84.8749C96.0027 84.5496 95.567 84.3641 95.1107 84.3592" fill="black"/>
  <path d="M54.5409 35.3579C54.8861 35.3648 55.2256 35.2688 55.5161 35.0822C55.8065 34.8957 56.0347 34.627 56.1716 34.3104C56.3085 33.9939 56.3478 33.6438 56.2847 33.3048C56.2215 32.9658 56.0586 32.6533 55.8168 32.4071C55.5751 32.1609 55.2653 31.9921 54.9271 31.9224C54.5889 31.8526 54.2376 31.885 53.9179 32.0154C53.5982 32.1458 53.3246 32.3683 53.1321 32.6545C52.9396 32.9408 52.8368 33.2778 52.8368 33.6226C52.8327 34.0782 53.0099 34.5168 53.3294 34.8421C53.6488 35.1675 54.0845 35.353 54.5409 35.3579Z" fill="black"/>
  <path d="M95.1107 65.2831C94.7655 65.2763 94.426 65.3722 94.1355 65.5588C93.8451 65.7453 93.6169 66.014 93.48 66.3306C93.3431 66.6472 93.3037 66.9972 93.3669 67.3362C93.4301 67.6752 93.593 67.9877 93.8347 68.2339C94.0765 68.4802 94.3862 68.6489 94.7244 68.7187C95.0627 68.7884 95.414 68.756 95.7337 68.6256C96.0534 68.4952 96.3269 68.2727 96.5195 67.9865C96.712 67.7002 96.8148 67.3632 96.8148 67.0184C96.8188 66.5628 96.6417 66.1242 96.3222 65.7989C96.0027 65.4735 95.567 65.2881 95.1107 65.2831" fill="black"/>
  <path d="M95.1107 46.2071C94.7655 46.2002 94.426 46.2962 94.1355 46.4827C93.8451 46.6693 93.6169 46.938 93.48 47.2545C93.3431 47.5711 93.3037 47.9212 93.3669 48.2602C93.4301 48.5992 93.593 48.9117 93.8347 49.1579C94.0765 49.4041 94.3862 49.5728 94.7244 49.6426C95.0627 49.7124 95.414 49.68 95.7337 49.5496C96.0534 49.4192 96.3269 49.1967 96.5195 48.9104C96.712 48.6242 96.8148 48.2872 96.8148 47.9424C96.8188 47.4868 96.6417 47.0482 96.3222 46.7228C96.0027 46.3975 95.567 46.212 95.1107 46.2071" fill="black"/>
  <path d="M95.1107 74.8197C94.7655 74.8128 94.426 74.9088 94.1355 75.0953C93.8451 75.2819 93.6169 75.5506 93.48 75.8672C93.3431 76.1837 93.3037 76.5338 93.3669 76.8728C93.4301 77.2118 93.593 77.5243 93.8347 77.7705C94.0765 78.0167 94.3862 78.1854 94.7244 78.2552C95.0627 78.325 95.414 78.2926 95.7337 78.1622C96.0534 78.0318 96.3269 77.8093 96.5195 77.523C96.712 77.2368 96.8148 76.8998 96.8148 76.555C96.8188 76.0994 96.6417 75.6608 96.3222 75.3354C96.0027 75.0101 95.567 74.8246 95.1107 74.8197" fill="black"/>
  <path d="M54.5408 98.6532C54.1957 98.6465 53.8564 98.7425 53.5662 98.929C53.2759 99.1156 53.0479 99.3842 52.9111 99.7006C52.7743 100.017 52.735 100.367 52.7982 100.706C52.8614 101.045 53.0242 101.357 53.2658 101.603C53.5075 101.849 53.8171 102.018 54.1551 102.088C54.4932 102.157 54.8443 102.125 55.1639 101.995C55.4835 101.864 55.7569 101.642 55.9495 101.356C56.142 101.07 56.2448 100.733 56.2449 100.388C56.2489 99.9329 56.0718 99.4943 55.7523 99.169C55.4328 98.8436 54.9971 98.6581 54.5408 98.6532" fill="black"/>
  <path d="M87.0121 89.1231C86.667 89.1163 86.3277 89.2124 86.0374 89.3989C85.7472 89.5854 85.5191 89.854 85.3824 90.1705C85.2456 90.4869 85.2063 90.8368 85.2695 91.1757C85.3326 91.5145 85.4954 91.8268 85.7371 92.0729C85.9788 92.319 86.2883 92.4877 86.6264 92.5574C86.9644 92.6272 87.3156 92.5949 87.6352 92.4646C87.9547 92.3343 88.2282 92.112 88.4207 91.8259C88.6132 91.5398 88.7161 91.203 88.7161 90.8584C88.7202 90.4028 88.5431 89.9642 88.2236 89.6388C87.9041 89.3135 87.4684 89.128 87.0121 89.1231" fill="black"/>
  <path d="M46.4422 40.1218C46.7875 40.1287 47.127 40.0327 47.4174 39.8461C47.7079 39.6596 47.9361 39.3909 48.0729 39.0743C48.2098 38.7578 48.2492 38.4077 48.186 38.0687C48.1228 37.7297 47.96 37.4172 47.7182 37.171C47.4764 36.9248 47.1667 36.756 46.8285 36.6863C46.4903 36.6165 46.1389 36.6489 45.8192 36.7793C45.4996 36.9097 45.226 37.1322 45.0335 37.4185C44.8409 37.7047 44.7381 38.0417 44.7382 38.3865C44.7343 38.8421 44.9115 39.2806 45.2309 39.6059C45.5503 39.9312 45.986 40.1167 46.4422 40.1218" fill="black"/>
  <path d="M87.0121 44.9033C87.3574 44.9101 87.6968 44.8141 87.9873 44.6276C88.2777 44.441 88.5059 44.1723 88.6428 43.8558C88.7797 43.5392 88.8191 43.1891 88.7559 42.8501C88.6927 42.5112 88.5298 42.1986 88.2881 41.9524C88.0463 41.7062 87.7366 41.5375 87.3984 41.4677C87.0602 41.398 86.7088 41.4304 86.3891 41.5608C86.0694 41.6912 85.7959 41.9137 85.6033 42.1999C85.4108 42.4861 85.308 42.8232 85.308 43.168C85.304 43.6236 85.4811 44.0622 85.8006 44.3875C86.1201 44.7128 86.5558 44.8983 87.0121 44.9033" fill="black"/>
  <path d="M46.4422 93.8799C46.0971 93.8732 45.7578 93.9692 45.4675 94.1558C45.1773 94.3423 44.9493 94.6109 44.8125 94.9273C44.6757 95.2438 44.6364 95.5937 44.6996 95.9325C44.7628 96.2713 44.9256 96.5837 45.1672 96.8298C45.4089 97.0759 45.7185 97.2445 46.0565 97.3143C46.3945 97.384 46.7457 97.3517 47.0653 97.2214C47.3848 97.0912 47.6583 96.8688 47.8508 96.5828C48.0434 96.2967 48.1462 95.9599 48.1463 95.6152C48.1503 95.1596 47.9732 94.721 47.6537 94.3957C47.3342 94.0704 46.8985 93.8849 46.4422 93.8799" fill="black"/>
  <path d="M78.8976 40.1218C79.2429 40.1287 79.5824 40.0327 79.8728 39.8461C80.1633 39.6596 80.3915 39.3909 80.5284 39.0743C80.6653 38.7578 80.7046 38.4077 80.6414 38.0687C80.5783 37.7297 80.4154 37.4172 80.1736 37.171C79.9319 36.9248 79.6221 36.756 79.2839 36.6863C78.9457 36.6165 78.5944 36.6489 78.2747 36.7793C77.955 36.9097 77.6814 37.1322 77.4889 37.4185C77.2963 37.7047 77.1935 38.0417 77.1936 38.3865C77.1895 38.8421 77.3667 39.2807 77.6861 39.6061C78.0056 39.9314 78.4413 40.1169 78.8976 40.1218" fill="black"/>
  <path d="M78.8977 93.8799C78.5525 93.8732 78.2132 93.9692 77.923 94.1558C77.6327 94.3423 77.4047 94.6109 77.2679 94.9273C77.1312 95.2438 77.0919 95.5937 77.155 95.9325C77.2182 96.2713 77.381 96.5837 77.6227 96.8298C77.8643 97.0759 78.1739 97.2445 78.5119 97.3143C78.85 97.384 79.2012 97.3517 79.5207 97.2214C79.8403 97.0912 80.1137 96.8688 80.3063 96.5828C80.4988 96.2967 80.6016 95.9599 80.6017 95.6152C80.6058 95.1596 80.4286 94.721 80.1091 94.3957C79.7897 94.0704 79.354 93.8849 78.8977 93.8799" fill="black"/>
  <path d="M30.2297 55.7454C29.8844 55.7385 29.5449 55.8345 29.2545 56.021C28.9641 56.2076 28.7358 56.4763 28.599 56.7928C28.4621 57.1094 28.4227 57.4595 28.4859 57.7985C28.5491 58.1375 28.7119 58.45 28.9537 58.6962C29.1955 58.9424 29.5052 59.1111 29.8434 59.1809C30.1816 59.2507 30.533 59.2183 30.8527 59.0879C31.1723 58.9575 31.4459 58.735 31.6384 58.4487C31.831 58.1625 31.9338 57.8255 31.9337 57.4807C31.9376 57.0251 31.7604 56.5866 31.441 56.2613C31.1216 55.936 30.6859 55.7505 30.2297 55.7454" fill="black"/>
  <path d="M30.2297 84.3592C29.8846 84.3524 29.5453 84.4484 29.255 84.635C28.9648 84.8215 28.7367 85.0901 28.6 85.4066C28.4632 85.723 28.4239 86.0729 28.4871 86.4117C28.5502 86.7505 28.713 87.0629 28.9547 87.309C29.1963 87.5551 29.5059 87.7238 29.844 87.7935C30.182 87.8633 30.5332 87.8309 30.8527 87.7006C31.1723 87.5704 31.4458 87.348 31.6383 87.062C31.8308 86.7759 31.9337 86.4391 31.9337 86.0945C31.9376 85.6389 31.7604 85.2004 31.441 84.8751C31.1216 84.5498 30.6859 84.3642 30.2297 84.3592" fill="black"/>
  <path d="M30.2297 65.2831C29.8844 65.2763 29.5449 65.3722 29.2545 65.5588C28.9641 65.7453 28.7358 66.014 28.599 66.3306C28.4621 66.6472 28.4227 66.9972 28.4859 67.3362C28.5491 67.6752 28.7119 67.9877 28.9537 68.2339C29.1955 68.4802 29.5052 68.6489 29.8434 68.7187C30.1816 68.7884 30.533 68.756 30.8527 68.6256C31.1723 68.4952 31.4459 68.2727 31.6384 67.9865C31.831 67.7002 31.9338 67.3632 31.9337 67.0184C31.9376 66.5629 31.7604 66.1244 31.441 65.799C31.1216 65.4737 30.6859 65.2882 30.2297 65.2831" fill="black"/>
  <path d="M30.2297 46.2071C29.8844 46.2002 29.5449 46.2962 29.2545 46.4827C28.9641 46.6693 28.7358 46.938 28.599 47.2545C28.4621 47.5711 28.4227 47.9212 28.4859 48.2602C28.5491 48.5992 28.7119 48.9117 28.9537 49.1579C29.1955 49.4041 29.5052 49.5728 29.8434 49.6426C30.1816 49.7124 30.533 49.68 30.8527 49.5496C31.1723 49.4192 31.4459 49.1967 31.6384 48.9104C31.831 48.6242 31.9338 48.2872 31.9337 47.9424C31.9376 47.4868 31.7604 47.0483 31.441 46.723C31.1216 46.3977 30.6859 46.2122 30.2297 46.2071Z" fill="black"/>
  <path d="M30.2297 74.8197C29.8844 74.8128 29.5449 74.9088 29.2545 75.0953C28.9641 75.2819 28.7358 75.5506 28.599 75.8672C28.4621 76.1837 28.4227 76.5338 28.4859 76.8728C28.5491 77.2118 28.7119 77.5243 28.9537 77.7705C29.1955 78.0167 29.5052 78.1854 29.8434 78.2552C30.1816 78.325 30.533 78.2926 30.8527 78.1622C31.1723 78.0318 31.4459 77.8093 31.6384 77.523C31.831 77.2368 31.9338 76.8998 31.9337 76.555C31.9376 76.0994 31.7604 75.6609 31.441 75.3356C31.1216 75.0103 30.6859 74.8248 30.2297 74.8197" fill="black"/>
  <path d="M38.3284 89.1231C37.9833 89.1163 37.644 89.2124 37.3537 89.3989C37.0635 89.5854 36.8354 89.854 36.6986 90.1705C36.5619 90.4869 36.5226 90.8368 36.5858 91.1757C36.6489 91.5145 36.8117 91.8268 37.0534 92.0729C37.295 92.319 37.6046 92.4877 37.9427 92.5574C38.2807 92.6272 38.6319 92.5949 38.9514 92.4646C39.271 92.3343 39.5445 92.112 39.737 91.8259C39.9295 91.5398 40.0324 91.203 40.0324 90.8584C40.0365 90.4028 39.8593 89.9642 39.5399 89.6388C39.2204 89.3135 38.7847 89.128 38.3284 89.1231" fill="black"/>
  <path d="M38.3283 44.9033C38.6736 44.9101 39.0131 44.8141 39.3035 44.6276C39.594 44.441 39.8222 44.1723 39.9591 43.8558C40.096 43.5392 40.1353 43.1891 40.0721 42.8501C40.009 42.5112 39.8461 42.1986 39.6043 41.9524C39.3626 41.7062 39.0528 41.5375 38.7146 41.4677C38.3764 41.398 38.0251 41.4304 37.7054 41.5608C37.3857 41.6912 37.1121 41.9137 36.9196 42.1999C36.727 42.4861 36.6242 42.8232 36.6243 43.168C36.6202 43.6236 36.7974 44.0622 37.1168 44.3875C37.4363 44.7128 37.872 44.8983 38.3283 44.9033" fill="black"/>
  <path d="M62.6699 20.5728C62.921 20.5778 63.1679 20.508 63.3791 20.3724C63.5902 20.2367 63.7562 20.0414 63.8558 19.8112C63.9553 19.581 63.984 19.3265 63.9381 19.08C63.8922 18.8335 63.7738 18.6062 63.598 18.4271C63.4223 18.2481 63.1971 18.1253 62.9512 18.0746C62.7053 18.0238 62.4498 18.0473 62.2173 18.142C61.9848 18.2368 61.7858 18.3985 61.6458 18.6066C61.5057 18.8147 61.4309 19.0597 61.4308 19.3105C61.428 19.6418 61.5569 19.9606 61.7891 20.1973C62.0214 20.4339 62.3381 20.5689 62.6699 20.5728" fill="black"/>
  <path d="M103.24 60.9823C102.989 60.9774 102.742 61.0473 102.531 61.183C102.32 61.3187 102.154 61.5141 102.054 61.7442C101.955 61.9744 101.926 62.229 101.972 62.4754C102.018 62.7219 102.137 62.9491 102.313 63.1281C102.488 63.3071 102.714 63.4298 102.959 63.4805C103.205 63.5313 103.461 63.5077 103.693 63.413C103.926 63.3182 104.125 63.1564 104.265 62.9484C104.405 62.7403 104.479 62.4953 104.48 62.2446C104.482 61.9132 104.353 61.5942 104.121 61.3576C103.889 61.1209 103.572 60.986 103.24 60.9823" fill="black"/>
  <path d="M103.24 89.5961C102.989 89.5912 102.742 89.6611 102.531 89.7968C102.32 89.9325 102.154 90.1279 102.054 90.358C101.955 90.5882 101.926 90.8428 101.972 91.0892C102.018 91.3357 102.137 91.5629 102.313 91.7419C102.488 91.9209 102.714 92.0436 102.959 92.0943C103.205 92.1451 103.461 92.1215 103.693 92.0268C103.926 91.932 104.125 91.7702 104.265 91.5622C104.405 91.3541 104.479 91.1091 104.48 90.8584C104.482 90.527 104.353 90.208 104.121 89.9714C103.889 89.7347 103.572 89.5998 103.24 89.5961Z" fill="black"/>
  <path d="M103.24 44.4303C103.491 44.4351 103.738 44.3653 103.949 44.2296C104.16 44.0939 104.326 43.8985 104.425 43.6683C104.525 43.4381 104.553 43.1835 104.507 42.9371C104.461 42.6906 104.343 42.4634 104.167 42.2844C103.991 42.1054 103.766 41.9827 103.52 41.932C103.274 41.8813 103.019 41.9048 102.786 41.9996C102.554 42.0943 102.355 42.2561 102.215 42.4642C102.075 42.6723 102 42.9173 102 43.1679C101.997 43.4993 102.126 43.8183 102.359 44.055C102.591 44.2916 102.908 44.4266 103.24 44.4303" fill="black"/>
  <path d="M103.24 70.52C102.989 70.5151 102.742 70.585 102.531 70.7207C102.32 70.8564 102.154 71.0518 102.054 71.282C101.955 71.5122 101.926 71.7667 101.972 72.0132C102.018 72.2596 102.137 72.4868 102.313 72.6658C102.488 72.8448 102.714 72.9675 102.959 73.0183C103.205 73.069 103.461 73.0455 103.693 72.9507C103.926 72.8559 104.125 72.6942 104.265 72.4861C104.405 72.278 104.479 72.033 104.48 71.7823C104.482 71.4509 104.353 71.1319 104.121 70.8953C103.889 70.6587 103.572 70.5237 103.24 70.52Z" fill="black"/>
  <path d="M103.24 51.444C102.989 51.4391 102.742 51.509 102.531 51.6447C102.32 51.7804 102.154 51.9758 102.054 52.2059C101.955 52.4361 101.926 52.6907 101.972 52.9371C102.018 53.1836 102.137 53.4108 102.313 53.5898C102.488 53.7688 102.714 53.8915 102.959 53.9422C103.205 53.993 103.461 53.9694 103.693 53.8747C103.926 53.7799 104.125 53.6181 104.265 53.4101C104.405 53.202 104.479 52.957 104.48 52.7063C104.482 52.3749 104.353 52.0559 104.121 51.8193C103.889 51.5826 103.572 51.4477 103.24 51.444Z" fill="black"/>
  <path d="M103.24 80.0577C102.989 80.0529 102.742 80.1227 102.531 80.2584C102.32 80.3941 102.154 80.5895 102.054 80.8197C101.955 81.0499 101.926 81.3044 101.972 81.5509C102.018 81.7974 102.137 82.0246 102.313 82.2036C102.488 82.3826 102.714 82.5053 102.959 82.556C103.205 82.6067 103.461 82.5832 103.693 82.4884C103.926 82.3936 104.125 82.2319 104.265 82.0238C104.405 81.8157 104.479 81.5707 104.48 81.32C104.482 80.9886 104.353 80.6697 104.121 80.433C103.889 80.1964 103.572 80.0614 103.24 80.0577Z" fill="black"/>
  <path d="M62.6699 113.428C62.4189 113.423 62.1721 113.493 61.961 113.629C61.7499 113.764 61.584 113.96 61.4845 114.19C61.385 114.42 61.3565 114.675 61.4024 114.921C61.4484 115.167 61.5668 115.395 61.7426 115.574C61.9184 115.753 62.1436 115.875 62.3895 115.926C62.6354 115.977 62.8909 115.953 63.1233 115.858C63.3558 115.764 63.5547 115.602 63.6947 115.394C63.8348 115.186 63.9096 114.941 63.9096 114.69C63.9126 114.359 63.7837 114.04 63.5513 113.803C63.3189 113.566 63.0019 113.431 62.6699 113.428Z" fill="black"/>
  <path d="M70.7838 25.3472C71.0348 25.3522 71.2817 25.2824 71.4929 25.1468C71.7041 25.0111 71.8701 24.8158 71.9696 24.5856C72.0692 24.3554 72.0978 24.1009 72.0519 23.8544C72.006 23.6079 71.8877 23.3806 71.7119 23.2016C71.5361 23.0225 71.3109 22.8998 71.065 22.849C70.8191 22.7982 70.5636 22.8217 70.3312 22.9164C70.0987 23.0112 69.8997 23.1729 69.7596 23.381C69.6196 23.5891 69.5447 23.8342 69.5447 24.0849C69.5419 24.4162 69.6707 24.7351 69.903 24.9717C70.1353 25.2083 70.452 25.3433 70.7838 25.3472" fill="black"/>
  <path d="M70.7838 108.665C70.5328 108.66 70.286 108.73 70.0748 108.865C69.8637 109.001 69.6979 109.196 69.5984 109.427C69.4989 109.657 69.4703 109.911 69.5163 110.158C69.5623 110.404 69.6807 110.631 69.8565 110.81C70.0323 110.989 70.2575 111.112 70.5034 111.163C70.7493 111.214 71.0047 111.19 71.2372 111.095C71.4696 111 71.6685 110.839 71.8086 110.631C71.9486 110.423 72.0234 110.178 72.0235 109.927C72.0264 109.595 71.8976 109.276 71.6652 109.04C71.4327 108.803 71.1157 108.668 70.7838 108.665" fill="black"/>
  <path d="M54.5408 25.3472C54.7919 25.3522 55.0388 25.2824 55.25 25.1468C55.4612 25.0111 55.6271 24.8158 55.7267 24.5856C55.8262 24.3554 55.8549 24.1009 55.809 23.8544C55.7631 23.6079 55.6447 23.3806 55.4689 23.2016C55.2932 23.0225 55.068 22.8998 54.8221 22.849C54.5762 22.7982 54.3207 22.8217 54.0882 22.9164C53.8557 23.0112 53.6568 23.1729 53.5167 23.381C53.3766 23.5891 53.3018 23.8342 53.3017 24.0849C53.2988 24.4162 53.4276 24.7352 53.6599 24.9718C53.8922 25.2085 54.209 25.3435 54.5408 25.3472" fill="black"/>
  <path d="M95.1107 39.6669C95.3618 39.6718 95.6086 39.6019 95.8197 39.4662C96.0308 39.3305 96.1967 39.1351 96.2962 38.9049C96.3956 38.6748 96.4242 38.4202 96.3782 38.1737C96.3323 37.9273 96.2138 37.7001 96.038 37.5211C95.8623 37.3421 95.6371 37.2194 95.3912 37.1687C95.1453 37.1179 94.8898 37.1415 94.6574 37.2362C94.4249 37.331 94.226 37.4927 94.0859 37.7008C93.9459 37.9089 93.8711 38.1539 93.8711 38.4046C93.8681 38.7361 93.997 39.0551 94.2294 39.2918C94.4618 39.5285 94.7788 39.6634 95.1107 39.6669" fill="black"/>
  <path d="M95.1107 94.3705C94.8597 94.3655 94.6128 94.4353 94.4016 94.5709C94.1904 94.7065 94.0245 94.9019 93.9249 95.1321C93.8253 95.3622 93.7967 95.6168 93.8426 95.8633C93.8885 96.1098 94.0069 96.337 94.1826 96.5161C94.3584 96.6952 94.5836 96.8179 94.8295 96.8687C95.0754 96.9195 95.3309 96.896 95.5634 96.8012C95.7959 96.7065 95.9948 96.5447 96.1349 96.3366C96.275 96.1285 96.3498 95.8835 96.3498 95.6328C96.3527 95.3015 96.2238 94.9826 95.9915 94.746C95.7593 94.5094 95.4425 94.3743 95.1107 94.3705" fill="black"/>
  <path d="M54.5409 108.664C54.2898 108.66 54.0429 108.729 53.8317 108.865C53.6205 109.001 53.4546 109.196 53.355 109.426C53.2555 109.656 53.2268 109.911 53.2727 110.157C53.3186 110.404 53.437 110.631 53.6128 110.81C53.7885 110.989 54.0137 111.112 54.2596 111.163C54.5055 111.213 54.761 111.19 54.9935 111.095C55.226 111 55.4249 110.839 55.565 110.631C55.7051 110.423 55.7799 110.178 55.78 109.927C55.7829 109.595 55.6541 109.276 55.4218 109.04C55.1895 108.803 54.8727 108.668 54.5409 108.664" fill="black"/>
  <path d="M46.4422 30.1105C46.6933 30.1155 46.9401 30.0457 47.1513 29.9101C47.3625 29.7744 47.5285 29.5791 47.628 29.3489C47.7276 29.1187 47.7563 28.8642 47.7104 28.6177C47.6645 28.3712 47.5461 28.1439 47.3703 27.9649C47.1945 27.7858 46.9693 27.6631 46.7234 27.6123C46.4775 27.5615 46.2221 27.585 45.9896 27.6797C45.7571 27.7745 45.5581 27.9362 45.4181 28.1443C45.278 28.3524 45.2032 28.5975 45.2031 28.8482C45.2003 29.1795 45.3291 29.4984 45.5614 29.735C45.7937 29.9716 46.1104 30.1066 46.4422 30.1105Z" fill="black"/>
  <path d="M87.0121 34.8925C87.2632 34.8975 87.51 34.8278 87.7212 34.6921C87.9324 34.5565 88.0984 34.3611 88.1979 34.131C88.2975 33.9008 88.3262 33.6462 88.2803 33.3997C88.2343 33.1532 88.116 32.926 87.9402 32.7469C87.7644 32.5678 87.5392 32.4451 87.2933 32.3943C87.0474 32.3435 86.7919 32.367 86.5595 32.4618C86.327 32.5565 86.128 32.7183 85.9879 32.9264C85.8479 33.1345 85.773 33.3795 85.773 33.6302C85.77 33.9616 85.8988 34.2805 86.1311 34.5172C86.3634 34.7538 86.6803 34.8888 87.0121 34.8925" fill="black"/>
  <path d="M87.0121 99.1338C86.7611 99.1288 86.5142 99.1986 86.303 99.3342C86.0918 99.4698 85.9258 99.6652 85.8263 99.8954C85.7267 100.126 85.6981 100.38 85.744 100.627C85.7899 100.873 85.9082 101.1 86.084 101.279C86.2598 101.458 86.485 101.581 86.7309 101.632C86.9768 101.683 87.2323 101.659 87.4648 101.565C87.6972 101.47 87.8962 101.308 88.0363 101.1C88.1763 100.892 88.2512 100.647 88.2512 100.396C88.2542 100.065 88.1254 99.7458 87.8931 99.5091C87.6608 99.2725 87.344 99.1375 87.0121 99.1338" fill="black"/>
  <path d="M46.4422 103.89C46.1911 103.885 45.9443 103.955 45.7332 104.091C45.5221 104.227 45.3562 104.422 45.2568 104.652C45.1573 104.882 45.1287 105.137 45.1747 105.383C45.2207 105.63 45.3391 105.857 45.5149 106.036C45.6907 106.215 45.9159 106.338 46.1618 106.388C46.4077 106.439 46.6631 106.416 46.8956 106.321C47.128 106.226 47.3269 106.064 47.467 105.856C47.607 105.648 47.6818 105.403 47.6819 105.152C47.6848 104.821 47.556 104.502 47.3235 104.265C47.0911 104.029 46.7741 103.894 46.4422 103.89" fill="black"/>
  <path d="M78.8976 30.1105C79.1487 30.1155 79.3956 30.0457 79.6068 29.9101C79.818 29.7744 79.9839 29.5791 80.0835 29.3489C80.1831 29.1187 80.2117 28.8642 80.1658 28.6177C80.1199 28.3712 80.0015 28.1439 79.8258 27.9649C79.65 27.7858 79.4248 27.6631 79.1789 27.6123C78.933 27.5615 78.6775 27.585 78.445 27.6797C78.2125 27.7745 78.0136 27.9362 77.8735 28.1443C77.7334 28.3524 77.6586 28.5975 77.6586 28.8482C77.6557 29.1795 77.7846 29.4984 78.0169 29.735C78.2491 29.9716 78.5658 30.1066 78.8976 30.1105Z" fill="black"/>
  <path d="M78.8976 103.89C78.6466 103.885 78.3998 103.955 78.1887 104.091C77.9776 104.227 77.8117 104.422 77.7122 104.652C77.6127 104.882 77.5842 105.137 77.6301 105.383C77.6761 105.63 77.7945 105.857 77.9703 106.036C78.1461 106.215 78.3713 106.338 78.6172 106.388C78.8631 106.439 79.1185 106.416 79.351 106.321C79.5835 106.226 79.7824 106.064 79.9224 105.856C80.0625 105.648 80.1373 105.403 80.1373 105.152C80.1403 104.821 80.0114 104.502 79.779 104.265C79.5466 104.029 79.2296 103.894 78.8976 103.89Z" fill="black"/>
  <path d="M22.1035 60.9823C21.8525 60.9773 21.6056 61.0471 21.3944 61.1827C21.1832 61.3183 21.0173 61.5137 20.9177 61.7438C20.8181 61.974 20.7895 62.2286 20.8354 62.4751C20.8813 62.7216 20.9997 62.9488 21.1754 63.1279C21.3512 63.307 21.5764 63.4297 21.8223 63.4805C22.0682 63.5313 22.3237 63.5078 22.5562 63.413C22.7887 63.3183 22.9876 63.1565 23.1277 62.9484C23.2678 62.7403 23.3426 62.4953 23.3426 62.2446C23.3456 61.9132 23.2168 61.5943 22.9845 61.3576C22.7522 61.121 22.4354 60.986 22.1035 60.9823" fill="black"/>
  <path d="M22.1035 89.5961C21.8525 89.5911 21.6056 89.6609 21.3944 89.7965C21.1832 89.9321 21.0173 90.1275 20.9177 90.3576C20.8181 90.5878 20.7895 90.8424 20.8354 91.0889C20.8813 91.3354 20.9997 91.5626 21.1754 91.7417C21.3512 91.9207 21.5764 92.0435 21.8223 92.0943C22.0682 92.145 22.3237 92.1216 22.5562 92.0268C22.7887 91.932 22.9876 91.7703 23.1277 91.5622C23.2678 91.3541 23.3426 91.1091 23.3426 90.8584C23.3456 90.527 23.2168 90.2081 22.9845 89.9714C22.7522 89.7348 22.4354 89.5998 22.1035 89.5961" fill="black"/>
  <path d="M22.1035 41.9062C21.8525 41.9012 21.6056 41.971 21.3944 42.1066C21.1832 42.2423 21.0173 42.4376 20.9177 42.6678C20.8181 42.898 20.7895 43.1525 20.8354 43.399C20.8813 43.6455 20.9997 43.8728 21.1754 44.0518C21.3512 44.2309 21.5764 44.3536 21.8223 44.4044C22.0682 44.4552 22.3237 44.4317 22.5562 44.337C22.7887 44.2422 22.9876 44.0805 23.1277 43.8724C23.2678 43.6643 23.3426 43.4192 23.3426 43.1685C23.3456 42.8372 23.2168 42.5182 22.9845 42.2816C22.7522 42.0449 22.4354 41.9099 22.1035 41.9062" fill="black"/>
  <path d="M22.1035 70.52C21.8525 70.515 21.6056 70.5848 21.3944 70.7204C21.1832 70.8561 21.0173 71.0514 20.9177 71.2816C20.8181 71.5118 20.7895 71.7663 20.8354 72.0128C20.8813 72.2593 20.9997 72.4866 21.1754 72.6656C21.3512 72.8447 21.5764 72.9674 21.8223 73.0182C22.0682 73.069 22.3237 73.0455 22.5562 72.9507C22.7887 72.856 22.9876 72.6943 23.1277 72.4862C23.2678 72.2781 23.3426 72.033 23.3426 71.7823C23.3456 71.451 23.2168 71.132 22.9845 70.8954C22.7522 70.6587 22.4354 70.5237 22.1035 70.52" fill="black"/>
  <path d="M22.1035 51.4439C21.8525 51.439 21.6056 51.5087 21.3944 51.6444C21.1832 51.78 21.0173 51.9753 20.9177 52.2055C20.8181 52.4357 20.7895 52.6902 20.8354 52.9367C20.8813 53.1832 20.9997 53.4105 21.1754 53.5896C21.3512 53.7686 21.5764 53.8914 21.8223 53.9421C22.0682 53.9929 22.3237 53.9694 22.5562 53.8747C22.7887 53.7799 22.9876 53.6182 23.1277 53.4101C23.2678 53.202 23.3426 52.957 23.3426 52.7063C23.3456 52.3749 23.2168 52.0559 22.9845 51.8193C22.7522 51.5826 22.4354 51.4476 22.1035 51.4439" fill="black"/>
  <path d="M22.1035 80.0577C21.8525 80.0528 21.6056 80.1225 21.3944 80.2581C21.1832 80.3938 21.0173 80.5891 20.9177 80.8193C20.8181 81.0495 20.7895 81.304 20.8354 81.5505C20.8813 81.797 20.9997 82.0243 21.1754 82.2034C21.3512 82.3824 21.5764 82.5052 21.8223 82.5559C22.0682 82.6067 22.3237 82.5832 22.5562 82.4885C22.7887 82.3937 22.9876 82.232 23.1277 82.0239C23.2678 81.8158 23.3426 81.5708 23.3426 81.32C23.3456 80.9887 23.2168 80.6697 22.9845 80.4331C22.7522 80.1964 22.4354 80.0614 22.1035 80.0577" fill="black"/>
  <path d="M30.2297 39.6669C30.4808 39.6719 30.7276 39.6022 30.9388 39.4665C31.15 39.3309 31.316 39.1355 31.4155 38.9054C31.5151 38.6752 31.5437 38.4206 31.4978 38.1741C31.4519 37.9276 31.3336 37.7004 31.1578 37.5213C30.982 37.3423 30.7568 37.2195 30.5109 37.1687C30.265 37.118 30.0095 37.1414 29.777 37.2362C29.5446 37.331 29.3456 37.4927 29.2055 37.7008C29.0655 37.9089 28.9906 38.1539 28.9906 38.4046C28.9876 38.736 29.1164 39.055 29.3487 39.2916C29.581 39.5283 29.8978 39.6632 30.2297 39.6669Z" fill="black"/>
  <path d="M30.2297 94.3705C29.9786 94.3655 29.7318 94.4353 29.5206 94.5709C29.3094 94.7065 29.1434 94.9019 29.0439 95.1321C28.9443 95.3622 28.9156 95.6168 28.9615 95.8633C29.0075 96.1098 29.1258 96.337 29.3016 96.5161C29.4774 96.6952 29.7026 96.8179 29.9485 96.8687C30.1944 96.9195 30.4499 96.896 30.6824 96.8012C30.9148 96.7065 31.1138 96.5447 31.2539 96.3366C31.3939 96.1285 31.4688 95.8835 31.4688 95.6328C31.4718 95.3015 31.343 94.9825 31.1107 94.7458C30.8784 94.5092 30.5616 94.3742 30.2297 94.3705" fill="black"/>
  <path d="M38.3284 34.8925C38.5794 34.8974 38.8262 34.8275 39.0373 34.6918C39.2484 34.5561 39.4143 34.3607 39.5138 34.1305C39.6133 33.9003 39.6418 33.6458 39.5959 33.3993C39.5499 33.1529 39.4315 32.9257 39.2557 32.7467C39.0799 32.5677 38.8547 32.445 38.6088 32.3942C38.3629 32.3435 38.1074 32.367 37.875 32.4618C37.6425 32.5566 37.4436 32.7183 37.3036 32.9264C37.1635 33.1345 37.0887 33.3795 37.0887 33.6302C37.0857 33.9616 37.2146 34.2807 37.447 34.5174C37.6794 34.754 37.9964 34.889 38.3284 34.8925" fill="black"/>
  <path d="M38.3283 99.1338C38.0773 99.1288 37.8304 99.1986 37.6192 99.3342C37.408 99.4698 37.2421 99.6652 37.1425 99.8954C37.0429 100.126 37.0143 100.38 37.0602 100.627C37.1061 100.873 37.2245 101.1 37.4002 101.279C37.576 101.458 37.8012 101.581 38.0471 101.632C38.293 101.683 38.5485 101.659 38.781 101.565C39.0135 101.47 39.2124 101.308 39.3525 101.1C39.4926 100.892 39.5674 100.647 39.5674 100.396C39.5703 100.065 39.4414 99.7459 39.2091 99.5093C38.9769 99.2727 38.6601 99.1377 38.3283 99.1338" fill="black"/>
  <path d="M62.6699 73.4516C62.0558 73.4395 61.452 73.6103 60.9354 73.9422C60.4189 74.2741 60.0131 74.7521 59.7697 75.3151C59.5263 75.8782 59.4564 76.5009 59.5688 77.1039C59.6813 77.7068 59.971 78.2626 60.4011 78.7005C60.8312 79.1384 61.3821 79.4385 61.9837 79.5625C62.5852 79.6865 63.2102 79.6288 63.7788 79.3968C64.3474 79.1649 64.8339 78.7691 65.1764 78.2599C65.5188 77.7508 65.7016 77.1513 65.7015 76.538C65.7085 75.7276 65.3933 74.9475 64.8249 74.3689C64.2566 73.7903 63.4816 73.4604 62.6699 73.4516" fill="black"/>
  <path d="M70.7838 59.1505C70.1697 59.1384 69.5659 59.3092 69.0493 59.6411C68.5328 59.973 68.127 60.451 67.8836 61.0141C67.6402 61.5772 67.5702 62.1999 67.6827 62.8028C67.7951 63.4057 68.0849 63.9616 68.515 64.3994C68.9451 64.8373 69.496 65.1374 70.0976 65.2614C70.6991 65.3854 71.324 65.3278 71.8927 65.0958C72.4613 64.8638 72.9478 64.468 73.2902 63.9589C73.6327 63.4497 73.8155 62.8503 73.8154 62.237C73.8224 61.4266 73.5072 60.6465 72.9388 60.0678C72.3705 59.4892 71.5955 59.1593 70.7838 59.1505Z" fill="black"/>
  <path d="M70.7838 68.6877C70.1697 68.6756 69.5659 68.8464 69.0493 69.1783C68.5328 69.5102 68.127 69.9882 67.8836 70.5513C67.6402 71.1143 67.5702 71.7371 67.6827 72.34C67.7951 72.9429 68.0849 73.4987 68.515 73.9366C68.9451 74.3745 69.496 74.6746 70.0976 74.7986C70.6991 74.9226 71.324 74.8649 71.8927 74.6329C72.4613 74.401 72.9478 74.0052 73.2902 73.496C73.6327 72.9869 73.8155 72.3874 73.8154 71.7741C73.8224 70.9637 73.5072 70.1836 72.9388 69.605C72.3705 69.0264 71.5955 68.6965 70.7838 68.6877Z" fill="black"/>
  <path d="M54.5408 59.1505C53.9267 59.1384 53.3229 59.3092 52.8063 59.6411C52.2898 59.973 51.884 60.451 51.6406 61.0141C51.3972 61.5772 51.3273 62.1999 51.4397 62.8028C51.5522 63.4057 51.8419 63.9616 52.272 64.3994C52.7021 64.8373 53.253 65.1374 53.8546 65.2614C54.4561 65.3854 55.0811 65.3278 55.6497 65.0958C56.2183 64.8638 56.7048 64.468 57.0473 63.9589C57.3897 63.4497 57.5725 62.8503 57.5724 62.237C57.5794 61.4266 57.2642 60.6465 56.6958 60.0678C56.1275 59.4892 55.3525 59.1593 54.5408 59.1505" fill="black"/>
  <path d="M54.5408 68.6877C53.9267 68.6756 53.3229 68.8464 52.8063 69.1783C52.2898 69.5102 51.884 69.9882 51.6406 70.5513C51.3972 71.1143 51.3273 71.7371 51.4397 72.34C51.5522 72.9429 51.8419 73.4987 52.272 73.9366C52.7021 74.3745 53.253 74.6746 53.8546 74.7986C54.4561 74.9226 55.0811 74.8649 55.6497 74.6329C56.2183 74.401 56.7048 74.0052 57.0473 73.496C57.3897 72.9869 57.5725 72.3874 57.5724 71.7741C57.5794 70.9637 57.2642 70.1836 56.6958 69.605C56.1275 69.0264 55.3525 68.6965 54.5408 68.6877Z" fill="black"/>
  <path d="M62.6699 60.549C63.284 60.5611 63.8878 60.3903 64.4044 60.0584C64.9209 59.7266 65.3267 59.2486 65.5701 58.6856C65.8135 58.1225 65.8835 57.4998 65.7711 56.8969C65.6587 56.294 65.369 55.7382 64.939 55.3003C64.5089 54.8624 63.9581 54.5623 63.3565 54.4382C62.755 54.3141 62.1301 54.3717 61.5615 54.6036C60.9929 54.8355 60.5063 55.2312 60.1638 55.7402C59.8213 56.2493 59.6384 56.8487 59.6384 57.462C59.6313 58.2724 59.9466 59.0526 60.5149 59.6313C61.0832 60.21 61.8582 60.5401 62.6699 60.549" fill="black"/>
  <path d="M62.6699 83.395C62.1366 83.3849 61.6123 83.5336 61.164 83.8221C60.7156 84.1106 60.3634 84.5259 60.1523 85.015C59.9411 85.5041 59.8807 86.0449 59.9785 86.5685C60.0764 87.092 60.3282 87.5746 60.7018 87.9548C61.0754 88.3349 61.5539 88.5954 62.0763 88.703C62.5987 88.8106 63.1414 88.7605 63.6352 88.559C64.129 88.3575 64.5515 88.0138 64.8489 87.5716C65.1463 87.1295 65.3051 86.6089 65.3051 86.0763C65.3112 85.3721 65.0371 84.6941 64.543 84.1914C64.049 83.6887 63.3753 83.4023 62.6699 83.395" fill="black"/>
  <path d="M62.6699 50.6061C63.2033 50.6162 63.7275 50.4675 64.1759 50.179C64.6243 49.8905 64.9765 49.4753 65.1876 48.9861C65.3987 48.497 65.4592 47.9562 65.3614 47.4327C65.2635 46.9091 65.0117 46.4265 64.6381 46.0464C64.2645 45.6662 63.786 45.4057 63.2636 45.2981C62.7411 45.1905 62.1984 45.2407 61.7047 45.4422C61.2109 45.6437 60.7884 45.9874 60.491 46.4295C60.1936 46.8717 60.0348 47.3922 60.0348 47.9248C60.0287 48.6291 60.3028 49.307 60.7968 49.8097C61.2909 50.3124 61.9646 50.5989 62.6699 50.6061" fill="black"/>
  <path d="M70.7838 78.6312C70.2504 78.6211 69.7262 78.7697 69.2778 79.0582C68.8294 79.3468 68.4772 79.762 68.2661 80.2511C68.055 80.7402 67.9945 81.281 68.0923 81.8046C68.1902 82.3281 68.442 82.8108 68.8156 83.1909C69.1892 83.5711 69.6677 83.8315 70.1901 83.9391C70.7126 84.0468 71.2553 83.9966 71.749 83.7951C72.2428 83.5936 72.6653 83.2499 72.9627 82.8077C73.2601 82.3656 73.4189 81.8451 73.4189 81.3125C73.425 80.6082 73.1509 79.9303 72.6569 79.4276C72.1628 78.9248 71.4892 78.6384 70.7838 78.6312" fill="black"/>
  <path d="M54.5409 78.6312C54.0075 78.6211 53.4832 78.7697 53.0349 79.0582C52.5865 79.3468 52.2343 79.762 52.0232 80.2511C51.812 80.7402 51.7516 81.281 51.8494 81.8046C51.9473 82.3281 52.1991 82.8108 52.5727 83.1909C52.9463 83.5711 53.4248 83.8315 53.9472 83.9391C54.4696 84.0468 55.0123 83.9966 55.5061 83.7951C55.9999 83.5936 56.4224 83.2499 56.7198 82.8077C57.0172 82.3656 57.176 81.8451 57.176 81.3125C57.1821 80.6082 56.908 79.9303 56.4139 79.4276C55.9199 78.9248 55.2462 78.6384 54.5409 78.6312" fill="black"/>
  <path d="M46.4422 54.7812C45.9089 54.7711 45.3846 54.9198 44.9362 55.2083C44.4878 55.4968 44.1357 55.9121 43.9245 56.4012C43.7134 56.8903 43.6529 57.4311 43.7508 57.9547C43.8487 58.4782 44.1004 58.9608 44.474 59.341C44.8476 59.7211 45.3262 59.9816 45.8486 60.0892C46.371 60.1968 46.9137 60.1467 47.4075 59.9452C47.9013 59.7437 48.3238 59.4 48.6212 58.9578C48.9186 58.5157 49.0774 57.9951 49.0774 57.4625C49.0834 56.7583 48.8094 56.0803 48.3153 55.5776C47.8213 55.0749 47.1476 54.7885 46.4422 54.7812Z" fill="black"/>
  <path d="M46.4422 64.319C45.9089 64.3089 45.3846 64.4576 44.9362 64.7461C44.4878 65.0346 44.1357 65.4499 43.9245 65.939C43.7134 66.4281 43.6529 66.9689 43.7508 67.4924C43.8487 68.016 44.1004 68.4986 44.474 68.8787C44.8476 69.2589 45.3262 69.5194 45.8486 69.627C46.371 69.7346 46.9137 69.6844 47.4075 69.4829C47.9013 69.2814 48.3238 68.9377 48.6212 68.4956C48.9186 68.0534 49.0774 67.5329 49.0774 67.0003C49.0834 66.296 48.8094 65.6181 48.3153 65.1154C47.8213 64.6127 47.1476 64.3262 46.4422 64.319" fill="black"/>
  <path d="M46.4422 73.8567C45.9089 73.8466 45.3846 73.9953 44.9362 74.2838C44.4878 74.5723 44.1357 74.9876 43.9245 75.4767C43.7134 75.9658 43.6529 76.5066 43.7508 77.0302C43.8487 77.5537 44.1004 78.0363 44.474 78.4165C44.8476 78.7966 45.3262 79.0571 45.8486 79.1647C46.371 79.2723 46.9137 79.2222 47.4075 79.0207C47.9013 78.8192 48.3238 78.4755 48.6212 78.0333C48.9186 77.5912 49.0774 77.0706 49.0774 76.538C49.0834 75.8338 48.8094 75.1558 48.3153 74.6531C47.8213 74.1504 47.1476 73.864 46.4422 73.8567Z" fill="black"/>
  <path d="M78.8976 54.7812C78.3643 54.7711 77.84 54.9198 77.3917 55.2083C76.9433 55.4968 76.5911 55.9121 76.3799 56.4012C76.1688 56.8903 76.1083 57.4311 76.2062 57.9547C76.3041 58.4782 76.5559 58.9608 76.9295 59.341C77.3031 59.7211 77.7816 59.9816 78.304 60.0892C78.8264 60.1968 79.3691 60.1467 79.8629 59.9452C80.3567 59.7437 80.7792 59.4 81.0766 58.9578C81.374 58.5157 81.5328 57.9951 81.5328 57.4625C81.5389 56.7583 81.2648 56.0803 80.7707 55.5776C80.2767 55.0749 79.603 54.7885 78.8976 54.7812" fill="black"/>
  <path d="M78.8976 64.319C78.3643 64.3089 77.84 64.4576 77.3917 64.7461C76.9433 65.0346 76.5911 65.4499 76.3799 65.939C76.1688 66.4281 76.1083 66.9689 76.2062 67.4924C76.3041 68.016 76.5559 68.4986 76.9295 68.8787C77.3031 69.2589 77.7816 69.5194 78.304 69.627C78.8264 69.7346 79.3691 69.6844 79.8629 69.4829C80.3567 69.2814 80.7792 68.9377 81.0766 68.4956C81.374 68.0534 81.5328 67.5329 81.5328 67.0003C81.5389 66.296 81.2648 65.6181 80.7707 65.1154C80.2767 64.6127 79.603 64.3262 78.8976 64.319" fill="black"/>
  <path d="M78.8976 73.8567C78.3643 73.8466 77.84 73.9953 77.3917 74.2838C76.9433 74.5723 76.5911 74.9876 76.3799 75.4767C76.1688 75.9658 76.1083 76.5066 76.2062 77.0302C76.3041 77.5537 76.5559 78.0363 76.9295 78.4165C77.3031 78.7966 77.7816 79.0571 78.304 79.1647C78.8264 79.2723 79.3691 79.2222 79.8629 79.0207C80.3567 78.8192 80.7792 78.4755 81.0766 78.0333C81.374 77.5912 81.5328 77.0706 81.5328 76.538C81.5389 75.8338 81.2648 75.1558 80.7707 74.6531C80.2767 74.1504 79.603 73.864 78.8976 73.8567Z" fill="black"/>
  <path d="M70.7838 55.3799C71.3171 55.3901 71.8414 55.2414 72.2898 54.9529C72.7382 54.6644 73.0904 54.2491 73.3015 53.76C73.5126 53.2709 73.5731 52.7301 73.4752 52.2065C73.3774 51.683 73.1256 51.2004 72.752 50.8202C72.3784 50.4401 71.8999 50.1796 71.3774 50.072C70.855 49.9644 70.3123 50.0145 69.8185 50.216C69.3248 50.4175 68.9022 50.7612 68.6048 51.2034C68.3074 51.6455 68.1486 52.1661 68.1487 52.6987C68.1426 53.4029 68.4166 54.0808 68.9107 54.5836C69.4048 55.0863 70.0784 55.3727 70.7838 55.3799" fill="black"/>
  <path d="M54.5409 55.3799C55.0742 55.3901 55.5985 55.2414 56.0469 54.9529C56.4952 54.6644 56.8474 54.2491 57.0586 53.76C57.2697 53.2709 57.3302 52.7301 57.2323 52.2065C57.1344 51.683 56.8827 51.2004 56.5091 50.8202C56.1355 50.4401 55.6569 50.1796 55.1345 50.072C54.6121 49.9644 54.0694 50.0145 53.5756 50.216C53.0818 50.4175 52.6593 50.7612 52.3619 51.2034C52.0645 51.6455 51.9057 52.1661 51.9057 52.6987C51.8997 53.4029 52.1737 54.0808 52.6678 54.5836C53.1618 55.0863 53.8355 55.3727 54.5409 55.3799" fill="black"/>
  <path d="M62.6699 93.4058C62.2305 93.3967 61.7984 93.5186 61.4286 93.7557C61.0588 93.9929 60.7681 94.3347 60.5937 94.7374C60.4192 95.1402 60.3689 95.5857 60.4491 96.0172C60.5292 96.4487 60.7363 96.8465 61.0439 97.16C61.3514 97.4734 61.7456 97.6883 62.1759 97.7773C62.6063 97.8662 63.0535 97.8251 63.4604 97.6593C63.8673 97.4934 64.2155 97.2103 64.4606 96.8461C64.7057 96.4818 64.8366 96.0529 64.8366 95.6141C64.8416 95.0347 64.6164 94.4769 64.2103 94.063C63.8041 93.6491 63.2502 93.4127 62.6699 93.4058" fill="black"/>
  <path d="M70.7838 88.6419C70.3444 88.6328 69.9122 88.7547 69.5424 88.9918C69.1726 89.229 68.882 89.5708 68.7075 89.9735C68.533 90.3763 68.4827 90.8218 68.5629 91.2533C68.6431 91.6847 68.8501 92.0826 69.1577 92.396C69.4653 92.7095 69.8594 92.9244 70.2898 93.0133C70.7202 93.1023 71.1673 93.0612 71.5742 92.8953C71.9811 92.7295 72.3294 92.4464 72.5745 92.0821C72.8196 91.7179 72.9505 91.289 72.9504 90.8502C72.9554 90.2708 72.7302 89.713 72.3241 89.2991C71.918 88.8851 71.3641 88.6488 70.7838 88.6419" fill="black"/>
  <path d="M54.5409 88.6419C54.1014 88.6328 53.6693 88.7547 53.2995 88.9918C52.9297 89.229 52.639 89.5708 52.4646 89.9735C52.2901 90.3763 52.2398 90.8218 52.32 91.2533C52.4001 91.6847 52.6072 92.0826 52.9148 92.396C53.2224 92.7095 53.6165 92.9244 54.0469 93.0133C54.4772 93.1023 54.9244 93.0612 55.3313 92.8953C55.7382 92.7295 56.0864 92.4464 56.3315 92.0821C56.5767 91.7179 56.7075 91.289 56.7075 90.8502C56.7125 90.2708 56.4873 89.713 56.0812 89.2991C55.675 88.8851 55.1212 88.6488 54.5409 88.6419" fill="black"/>
  <path d="M62.6699 40.5948C63.1093 40.6039 63.5415 40.482 63.9113 40.2449C64.2811 40.0077 64.5717 39.6659 64.7462 39.2632C64.9206 38.8604 64.971 38.4149 64.8908 37.9834C64.8106 37.5519 64.6035 37.1541 64.296 36.8406C63.9884 36.5272 63.5943 36.3122 63.1639 36.2233C62.7335 36.1344 62.2864 36.1755 61.8795 36.3413C61.4725 36.5072 61.1243 36.7903 60.8792 37.1545C60.6341 37.5188 60.5032 37.9477 60.5033 38.3865C60.4983 38.9659 60.7235 39.5237 61.1296 39.9376C61.5357 40.3515 62.0896 40.5879 62.6699 40.5948" fill="black"/>
  <path d="M70.7838 45.3687C71.2232 45.3777 71.6554 45.2559 72.0252 45.0187C72.395 44.7816 72.6856 44.4398 72.8601 44.037C73.0345 43.6343 73.0849 43.1887 73.0047 42.7573C72.9245 42.3258 72.7174 41.928 72.4099 41.6145C72.1023 41.301 71.7082 41.0861 71.2778 40.9972C70.8474 40.9083 70.4003 40.9493 69.9933 41.1152C69.5864 41.281 69.2382 41.5642 68.9931 41.9284C68.748 42.2926 68.6171 42.7215 68.6171 43.1604C68.6121 43.7398 68.8374 44.2976 69.2435 44.7115C69.6496 45.1254 70.2035 45.3617 70.7838 45.3687Z" fill="black"/>
  <path d="M54.5408 45.3687C54.9803 45.3777 55.4124 45.2559 55.7822 45.0187C56.152 44.7816 56.4426 44.4398 56.6171 44.037C56.7916 43.6343 56.8419 43.1887 56.7617 42.7573C56.6815 42.3258 56.4745 41.928 56.1669 41.6145C55.8593 41.301 55.4652 41.0861 55.0348 40.9972C54.6044 40.9083 54.1573 40.9493 53.7504 41.1152C53.3435 41.281 52.9952 41.5642 52.7501 41.9284C52.505 42.2926 52.3741 42.7215 52.3742 43.1604C52.369 43.7398 52.5942 44.2977 53.0004 44.7116C53.4065 45.1256 53.9605 45.3619 54.5408 45.3687" fill="black"/>
  <path d="M87.0121 60.0357C86.5727 60.0266 86.1405 60.1485 85.7707 60.3856C85.401 60.6228 85.1103 60.9645 84.9358 61.3673C84.7614 61.7701 84.711 62.2156 84.7912 62.6471C84.8714 63.0785 85.0785 63.4764 85.386 63.7899C85.6936 64.1033 86.0877 64.3182 86.5181 64.4072C86.9485 64.4961 87.3957 64.455 87.8026 64.2892C88.2095 64.1233 88.5577 63.8402 88.8028 63.4759C89.0479 63.1117 89.1788 62.6828 89.1788 62.244C89.1839 61.6645 88.9587 61.1067 88.5526 60.6927C88.1464 60.2787 87.5925 60.0425 87.0121 60.0357" fill="black"/>
  <path d="M46.4422 83.8681C46.0028 83.859 45.5706 83.9808 45.2009 84.218C44.8311 84.4552 44.5404 84.7969 44.366 85.1997C44.1915 85.6025 44.1412 86.048 44.2213 86.4794C44.3015 86.9109 44.5086 87.3087 44.8162 87.6222C45.1237 87.9357 45.5178 88.1506 45.9482 88.2395C46.3786 88.3284 46.8258 88.2873 47.2327 88.1215C47.6396 87.9556 47.9878 87.6725 48.2329 87.3083C48.478 86.9441 48.6089 86.5152 48.6089 86.0763C48.614 85.4969 48.3889 84.939 47.9827 84.5251C47.5765 84.1111 47.0226 83.8748 46.4422 83.8681" fill="black"/>
  <path d="M87.0121 69.574C86.5727 69.565 86.1405 69.6868 85.7707 69.9239C85.401 70.1611 85.1103 70.5029 84.9358 70.9057C84.7614 71.3084 84.711 71.754 84.7912 72.1854C84.8714 72.6169 85.0785 73.0147 85.386 73.3282C85.6936 73.6417 86.0877 73.8566 86.5181 73.9455C86.9485 74.0344 87.3957 73.9933 87.8026 73.8275C88.2095 73.6616 88.5577 73.3785 88.8028 73.0143C89.0479 72.65 89.1788 72.2211 89.1788 71.7823C89.1839 71.2029 88.9587 70.645 88.5526 70.231C88.1464 69.8171 87.5925 69.5808 87.0121 69.574" fill="black"/>
  <path d="M46.4422 50.1325C46.8816 50.1416 47.3138 50.0198 47.6836 49.7826C48.0534 49.5454 48.344 49.2037 48.5185 48.8009C48.6929 48.3981 48.7433 47.9526 48.6631 47.5211C48.5829 47.0897 48.3758 46.6919 48.0683 46.3784C47.7607 46.0649 47.3666 45.85 46.9362 45.7611C46.5058 45.6721 46.0586 45.7132 45.6517 45.8791C45.2448 46.0449 44.8966 46.328 44.6515 46.6923C44.4064 47.0565 44.2755 47.4854 44.2755 47.9242C44.2705 48.5037 44.4958 49.0614 44.9019 49.4754C45.308 49.8893 45.8619 50.1256 46.4422 50.1325" fill="black"/>
  <path d="M87.0121 50.4974C86.5727 50.4883 86.1405 50.6101 85.7707 50.8473C85.401 51.0845 85.1103 51.4262 84.9358 51.829C84.7614 52.2318 84.711 52.6773 84.7912 53.1088C84.8714 53.5402 85.0785 53.9381 85.386 54.2515C85.6936 54.565 86.0877 54.7799 86.5181 54.8688C86.9485 54.9578 87.3957 54.9167 87.8026 54.7508C88.2095 54.585 88.5577 54.3019 88.8028 53.9376C89.0479 53.5734 89.1788 53.1445 89.1788 52.7057C89.1839 52.1262 88.9587 51.5683 88.5526 51.1544C88.1464 50.7404 87.5925 50.5041 87.0121 50.4974Z" fill="black"/>
  <path d="M87.0121 79.1117C86.5727 79.1027 86.1405 79.2245 85.7707 79.4617C85.401 79.6988 85.1103 80.0406 84.9358 80.4434C84.7614 80.8462 84.711 81.2917 84.7912 81.7231C84.8714 82.1546 85.0785 82.5524 85.386 82.8659C85.6936 83.1794 86.0877 83.3943 86.5181 83.4832C86.9485 83.5721 87.3957 83.5311 87.8026 83.3652C88.2095 83.1994 88.5577 82.9163 88.8028 82.552C89.0479 82.1878 89.1788 81.7589 89.1788 81.32C89.1839 80.7406 88.9587 80.1827 88.5526 79.7688C88.1464 79.3548 87.5925 79.1185 87.0121 79.1117Z" fill="black"/>
  <path d="M78.8977 83.8681C78.4582 83.859 78.0261 83.9808 77.6563 84.218C77.2865 84.4552 76.9959 84.7969 76.8214 85.1997C76.6469 85.6025 76.5966 86.048 76.6768 86.4794C76.757 86.9109 76.964 87.3087 77.2716 87.6222C77.5792 87.9357 77.9733 88.1506 78.4037 88.2395C78.8341 88.3284 79.2812 88.2873 79.6881 88.1215C80.095 87.9556 80.4433 87.6725 80.6884 87.3083C80.9335 86.9441 81.0643 86.5152 81.0643 86.0763C81.0695 85.4969 80.8443 84.939 80.4381 84.5251C80.032 84.1111 79.478 83.8748 78.8977 83.8681" fill="black"/>
  <path d="M78.8976 50.1325C79.3371 50.1416 79.7692 50.0198 80.139 49.7826C80.5088 49.5454 80.7995 49.2037 80.9739 48.8009C81.1484 48.3981 81.1987 47.9526 81.1185 47.5211C81.0384 47.0897 80.8313 46.6919 80.5237 46.3784C80.2162 46.0649 79.822 45.85 79.3916 45.7611C78.9613 45.6721 78.5141 45.7132 78.1072 45.8791C77.7003 46.0449 77.3521 46.328 77.1069 46.6923C76.8618 47.0565 76.731 47.4854 76.731 47.9242C76.726 48.5037 76.9512 49.0614 77.3573 49.4754C77.7634 49.8893 78.3173 50.1256 78.8976 50.1325" fill="black"/>
  <path d="M38.3283 60.0357C37.8889 60.0266 37.4568 60.1485 37.087 60.3856C36.7172 60.6228 36.4265 60.9645 36.2521 61.3673C36.0776 61.7701 36.0273 62.2156 36.1074 62.6471C36.1876 63.0785 36.3947 63.4764 36.7023 63.7899C37.0098 64.1033 37.4039 64.3182 37.8343 64.4072C38.2647 64.4961 38.7119 64.455 39.1188 64.2892C39.5257 64.1233 39.8739 63.8402 40.119 63.4759C40.3641 63.1117 40.495 62.6828 40.495 62.244C40.5 61.6646 40.2748 61.1068 39.8686 60.6929C39.4625 60.2789 38.9086 60.0426 38.3283 60.0357Z" fill="black"/>
  <path d="M38.3283 69.574C37.8889 69.565 37.4568 69.6868 37.087 69.9239C36.7172 70.1611 36.4265 70.5029 36.2521 70.9057C36.0776 71.3084 36.0273 71.754 36.1074 72.1854C36.1876 72.6169 36.3947 73.0147 36.7023 73.3282C37.0098 73.6417 37.4039 73.8566 37.8343 73.9455C38.2647 74.0344 38.7119 73.9933 39.1188 73.8275C39.5257 73.6616 39.8739 73.3785 40.119 73.0143C40.3641 72.65 40.495 72.2211 40.495 71.7823C40.5 71.2029 40.2748 70.6451 39.8686 70.2312C39.4625 69.8173 38.9086 69.581 38.3283 69.574Z" fill="black"/>
  <path d="M38.3283 50.4974C37.8889 50.4883 37.4568 50.6101 37.087 50.8473C36.7172 51.0845 36.4265 51.4262 36.2521 51.829C36.0776 52.2318 36.0273 52.6773 36.1074 53.1088C36.1876 53.5402 36.3947 53.9381 36.7023 54.2515C37.0098 54.565 37.4039 54.7799 37.8343 54.8688C38.2647 54.9578 38.7119 54.9167 39.1188 54.7508C39.5257 54.585 39.8739 54.3019 40.119 53.9376C40.3641 53.5734 40.495 53.1445 40.495 52.7057C40.5 52.1262 40.2748 51.5685 39.8686 51.1545C39.4625 50.7406 38.9086 50.5043 38.3283 50.4974" fill="black"/>
  <path d="M38.3283 79.1117C37.8889 79.1027 37.4568 79.2245 37.087 79.4617C36.7172 79.6988 36.4265 80.0406 36.2521 80.4434C36.0776 80.8462 36.0273 81.2917 36.1074 81.7231C36.1876 82.1546 36.3947 82.5524 36.7023 82.8659C37.0098 83.1794 37.4039 83.3943 37.8343 83.4832C38.2647 83.5721 38.7119 83.5311 39.1188 83.3652C39.5257 83.1994 39.8739 82.9163 40.119 82.552C40.3641 82.1878 40.495 81.7589 40.495 81.32C40.5 80.7406 40.2748 80.1829 39.8686 79.7689C39.4625 79.355 38.9086 79.1187 38.3283 79.1117" fill="black"/>
</svg>