<svg width="1000" height="1001" viewBox="0 0 1000 1001" fill="none" xmlns="http://www.w3.org/2000/svg">
<path d="M192.906 0.12854C86.033 0.12854 0 86.1615 0 193.035V807.223C0 914.096 86.033 1000.13 192.906 1000.13H807.094C913.967 1000.13 1000 914.096 1000 807.223V193.035C1000 86.1615 913.967 0.12854 807.094 0.12854H192.906ZM709.625 197.098C712.669 197.083 715.737 197.123 718.844 197.223C792.603 199.361 827.339 246.911 823.063 339.911C819.856 409.394 771.226 504.555 677.157 625.349C579.881 751.487 497.564 814.537 430.219 814.537C388.529 814.537 353.237 776.065 324.375 699.099L266.656 487.443C245.277 410.477 222.305 372.005 197.718 372.005C192.373 372.005 173.662 383.213 141.593 405.661L107.905 362.38C143.181 331.38 177.948 300.38 212.155 269.38C259.189 228.759 294.45 207.362 317.968 205.224C373.554 199.879 407.765 237.826 420.593 319.068C434.49 406.723 444.123 461.251 449.468 482.631C465.502 555.321 483.133 591.662 502.374 591.662C517.34 591.662 539.787 568.134 569.718 521.099C599.649 474.065 615.674 438.279 617.812 413.693C622.088 373.072 606.063 352.755 569.718 352.755C552.615 352.755 534.984 356.491 516.812 363.974C550.985 253.169 615.259 197.552 709.625 197.099V197.098Z" fill="black"/>
</svg>
